# 3ds Max Wavefront OBJ Exporter v0.97b - (c)2007 guruware
# File Created: 27.07.2021 15:09:50

mtllib tuerca_right_back.mtl

#
# object tuerca_right_back
#

v  1.3609 0.7792 -0.4401
v  0.8471 1.4673 -0.4392
v  0.8471 1.4673 0.2494
v  1.5175 0.6060 0.2494
v  -0.0007 1.6944 -0.4392
v  -0.0007 1.6944 0.2494
v  -0.8485 1.4673 -0.4392
v  -0.8485 1.4673 0.2494
v  -1.4691 0.8466 -0.4392
v  -1.4691 0.8466 0.2494
v  -1.6963 -0.0011 -0.4392
v  -1.6963 -0.0011 0.2494
v  -1.2711 -1.0040 -0.4392
v  -1.2711 -1.0040 0.2494
v  0.7281 -3.0486 -0.4392
v  0.7281 -3.0486 0.2494
v  1.2795 -3.2490 -0.4392
v  1.2795 -3.2490 0.2494
v  1.8081 -3.1337 -0.4392
v  1.8081 -3.1337 0.2494
v  2.1722 -2.7336 -0.4392
v  2.1722 -2.7336 0.2494
v  2.2743 -2.1559 -0.4392
v  2.2743 -2.1559 0.2494
v  0.5383 1.0118 -0.2959
v  0.8739 0.5618 -0.2959
v  1.5674 -2.1708 -0.2959
v  1.5242 -2.4152 -0.2959
v  1.4441 -2.5033 -0.2959
v  1.3278 -2.5286 -0.2959
v  1.0820 -2.4393 -0.2959
v  -0.8407 -0.6875 -0.2959
v  -1.1478 0.0371 -0.2959
v  -1.0030 0.5775 -0.2959
v  -0.5794 1.0012 -0.2959
v  -0.0007 1.1562 -0.2959
v  0.8317 1.4406 0.2803
v  0.4922 0.8525 0.2803
v  0.8530 0.4917 0.2803
v  1.4901 0.5902 0.2803
v  -0.0007 1.6636 0.2803
v  -0.0007 0.9846 0.2803
v  -0.8331 1.4406 0.2803
v  -0.4936 0.8525 0.2803
v  -1.4424 0.8312 0.2803
v  -0.8544 0.4917 0.2803
v  -1.6654 -0.0011 0.2803
v  -0.9864 -0.0011 0.2803
v  -1.2437 -0.9882 0.2803
v  -0.8544 -0.4940 0.2803
v  0.7051 -3.0145 0.2803
v  -0.4766 -0.8542 0.2803
v  1.2575 -3.2142 0.2803
v  0.0079 -0.9844 0.2803
v  1.7875 -3.0981 0.2803
v  0.4922 -0.8548 0.2803
v  2.1531 -2.6971 0.2803
v  0.8465 -0.5002 0.2803
v  2.2563 -2.1189 0.2803
v  0.9760 -0.0155 0.2803
v  0.4842 0.8387 0.2962
v  0.4842 0.8387 0.5511
v  0.8391 0.4837 0.5511
v  0.8391 0.4837 0.2962
v  -0.0007 0.9686 0.2962
v  -0.0007 0.9686 0.5511
v  -0.4856 0.8387 0.2962
v  -0.4856 0.8387 0.5511
v  -0.8405 0.4837 0.2962
v  -0.8405 0.4837 0.5511
v  -0.9704 -0.0011 0.2962
v  -0.9704 -0.0011 0.5511
v  -0.8405 -0.4860 0.2962
v  -0.8405 -0.4860 0.5511
v  -0.4856 -0.8410 0.2962
v  -0.4856 -0.8410 0.5511
v  -0.0007 -0.9709 0.2962
v  -0.0007 -0.9709 0.5511
v  0.4842 -0.8410 0.2962
v  0.4842 -0.8410 0.5511
v  0.8391 -0.4860 0.2962
v  0.8391 -0.4860 0.5511
v  0.9691 -0.0011 0.2962
v  0.9691 -0.0011 0.5511
v  0.8253 0.4757 0.5671
v  0.4762 0.8248 0.5671
v  0.3353 0.5807 0.5671
v  0.2927 0.1682 0.5671
v  -0.0007 0.9526 0.5671
v  -0.0007 0.3376 0.5671
v  -0.4776 0.8248 0.5671
v  -0.3366 0.5807 0.5671
v  -0.8267 0.4757 0.5671
v  -0.2941 0.1682 0.5671
v  -0.9545 -0.0011 0.5671
v  -0.6726 -0.0011 0.5671
v  -0.8267 -0.4780 0.5671
v  -0.2941 -0.1705 0.5671
v  -0.4776 -0.8272 0.5671
v  -0.3366 -0.5830 0.5671
v  -0.0007 -0.9549 0.5671
v  -0.0007 -0.3399 0.5671
v  0.4762 -0.8272 0.5671
v  0.3353 -0.5830 0.5671
v  0.8253 -0.4780 0.5671
v  0.2927 -0.1705 0.5671
v  0.9531 -0.0011 0.5671
v  0.6712 -0.0011 0.5671
v  0.3273 0.5669 0.5511
v  0.3273 0.5669 0.4726
v  0.2789 0.1603 0.4726
v  0.2789 0.1603 0.5511
v  -0.0007 0.3217 0.5511
v  -0.0007 0.3217 0.4726
v  -0.3286 0.5669 0.5511
v  -0.3286 0.5669 0.4726
v  -0.2802 0.1603 0.5511
v  -0.2802 0.1603 0.4726
v  -0.6566 -0.0011 0.5511
v  -0.6566 -0.0011 0.4726
v  -0.2802 -0.1625 0.5511
v  -0.2802 -0.1625 0.4726
v  -0.3286 -0.5692 0.5511
v  -0.3286 -0.5692 0.4726
v  -0.0007 -0.3239 0.5511
v  -0.0007 -0.3239 0.4726
v  0.3273 -0.5692 0.5511
v  0.3273 -0.5692 0.4726
v  0.2789 -0.1625 0.5511
v  0.2789 -0.1625 0.4726
v  0.6552 -0.0011 0.5511
v  0.6552 -0.0011 0.4726
v  0.2650 0.1523 0.4567
v  0.3193 0.5531 0.4567
v  -0.0007 -0.0011 0.4567
v  -0.0007 0.3057 0.4567
v  -0.3207 0.5531 0.4567
v  -0.2664 0.1523 0.4567
v  -0.6406 -0.0011 0.4567
v  -0.2664 -0.1546 0.4567
v  -0.3207 -0.5554 0.4567
v  -0.0007 -0.3080 0.4567
v  0.3193 -0.5554 0.4567
v  0.2650 -0.1546 0.4567
v  0.6393 -0.0011 0.4567
v  1.3426 0.7762 -0.4552
v  0.8376 1.4533 -0.4552
v  -0.0007 1.6779 -0.4552
v  -0.8402 1.4530 -0.4552
v  -1.4548 0.8384 -0.4552
v  -1.6794 0.0000 -0.4552
v  -1.2579 -0.9943 -0.4552
v  0.7390 -3.0298 -0.4552
v  1.2810 -3.2268 -0.4552
v  1.7969 -3.1143 -0.4552
v  2.1522 -2.7238 -0.4552
v  2.2525 -2.1564 -0.4552
v  0.8739 0.5618 -0.4552
v  0.5383 1.0118 -0.4552
v  1.5674 -2.1708 -0.4552
v  1.5242 -2.4152 -0.4552
v  1.4441 -2.5033 -0.4552
v  1.3278 -2.5286 -0.4552
v  1.0820 -2.4393 -0.4552
v  -0.8407 -0.6875 -0.4552
v  -1.1478 0.0371 -0.4552
v  -1.0030 0.5775 -0.4552
v  -0.5794 1.0012 -0.4552
v  -0.0007 1.1562 -0.4552
# 169 vertices

vn 0.8690 0.4902 -0.0674
vn 0.5611 0.8277 -0.0000
vn 0.5574 0.8302 -0.0057
vn 0.9000 0.4275 -0.0853
vn 0.0000 1.0000 -0.0000
vn -0.5000 0.8660 -0.0000
vn -0.8660 0.5000 -0.0000
vn -0.9976 -0.0695 -0.0000
vn -0.8323 -0.5544 -0.0000
vn -0.5418 -0.8405 -0.0000
vn -0.0669 -0.9978 -0.0000
vn 0.5000 -0.8660 -0.0000
vn 0.8975 -0.4409 -0.0000
vn 0.9987 0.0488 -0.0110
vn 0.9989 0.0462 -0.0000
vn 0.0000 0.0000 -1.0000
vn 0.0000 0.0000 1.0000
vn 0.7071 0.7071 -0.0000
vn 0.2588 0.9659 -0.0000
vn -0.2588 0.9659 -0.0000
vn -0.7071 0.7071 -0.0000
vn -0.9659 0.2588 -0.0000
vn -0.9659 -0.2588 -0.0000
vn -0.7071 -0.7071 -0.0000
vn -0.2588 -0.9659 -0.0000
vn 0.2588 -0.9659 -0.0000
vn 0.7071 -0.7071 -0.0000
vn 0.9659 -0.2588 -0.0000
vn 0.9659 0.2588 -0.0000
vn -0.9930 0.1182 -0.0000
vn 0.5989 -0.8008 -0.0000
vn -0.5989 -0.8008 -0.0000
vn 0.9930 0.1182 -0.0000
vn 0.3941 -0.9191 -0.0000
vn 0.3941 0.9191 -0.0000
vn 0.9930 -0.1182 -0.0000
vn -0.5989 0.8008 -0.0000
vn 0.5989 0.8008 -0.0000
vn -0.9930 -0.1182 -0.0000
vn -0.3941 0.9191 -0.0000
vn -0.3941 -0.9191 -0.0000
vn 0.5789 0.4506 0.6796
vn 0.5543 0.4292 0.7131
vn 0.1862 0.6947 0.6947
vn 0.1862 0.6948 0.6947
vn -0.1861 0.6947 0.6948
vn -0.1862 0.6947 0.6947
vn -0.5086 0.5086 0.6947
vn -0.5086 0.5086 0.6948
vn -0.6948 0.1862 0.6946
vn -0.6948 0.1862 0.6947
vn -0.6774 -0.2872 0.6772
vn -0.6440 -0.2752 0.7138
vn -0.6958 -0.6804 0.2303
vn -0.5105 -0.4910 0.7059
vn -0.2649 -0.7289 0.6313
vn -0.2676 -0.7402 0.6168
vn 0.1318 -0.6042 0.7858
vn 0.1336 -0.6093 0.7816
vn 0.4574 -0.4162 0.7859
vn 0.4609 -0.4203 0.7816
vn 0.7636 -0.1350 0.6314
vn 0.7749 -0.1383 0.6168
vn 0.9370 0.2567 0.2369
vn 0.6820 0.1929 0.7054
vn 0.5086 0.5086 0.6947
vn -0.1862 0.6948 0.6947
vn -0.5085 0.5085 0.6949
vn -0.6946 0.1861 0.6949
vn -0.6946 -0.1861 0.6949
vn -0.6948 -0.1862 0.6947
vn -0.6751 -0.7080 0.2072
vn -0.5084 -0.5084 0.6950
vn -0.2150 -0.7999 0.5603
vn -0.2166 -0.8083 0.5475
vn 0.1859 -0.6947 0.6949
vn 0.1872 -0.6988 0.6904
vn 0.5087 -0.5083 0.6948
vn 0.5116 -0.5116 0.6903
vn 0.8004 -0.2138 0.5601
vn 0.8084 -0.2166 0.5473
vn 0.9508 0.2307 0.2068
vn 0.6948 0.1862 0.6947
vn 0.5085 0.5085 0.6949
vn 0.5086 0.5087 0.6947
vn 0.1862 0.6947 0.6948
vn 0.1861 0.6946 0.6949
vn -0.1861 0.6946 0.6949
vn -0.1862 0.6947 0.6948
vn -0.6947 0.1862 0.6948
vn -0.6950 -0.1862 0.6945
vn -0.6947 -0.1861 0.6948
vn -0.5088 -0.5087 0.6945
vn -0.1862 -0.6949 0.6946
vn -0.1862 -0.6950 0.6945
vn 0.1862 -0.6950 0.6945
vn 0.1862 -0.6949 0.6946
vn 0.5085 -0.5086 0.6948
vn 0.5088 -0.5087 0.6945
vn 0.6947 -0.1862 0.6948
vn 0.6947 0.1862 0.6948
vn -0.9208 0.0950 0.3782
vn -0.7751 0.0923 0.6251
vn 0.5427 -0.7500 0.3780
vn 0.4674 -0.6251 0.6251
vn -0.5427 -0.7500 0.3781
vn -0.4674 -0.6251 0.6251
vn 0.9209 0.0950 0.3782
vn 0.7751 0.0923 0.6250
vn 0.3781 -0.8450 0.3781
vn 0.3076 -0.7174 0.6251
vn 0.3781 0.8450 0.3781
vn 0.3077 0.7175 0.6249
vn 0.9207 -0.0950 0.3786
vn 0.7753 -0.0923 0.6248
vn -0.5427 0.7500 0.3782
vn -0.4675 0.6252 0.6249
vn 0.5427 0.7499 0.3784
vn 0.4675 0.6252 0.6249
vn -0.9209 -0.0950 0.3781
vn -0.7751 -0.0923 0.6251
vn -0.3781 0.8450 0.3781
vn -0.3077 0.7175 0.6250
vn -0.3781 -0.8450 0.3781
vn -0.3077 -0.7175 0.6250
vn -0.9238 0.1100 0.3667
vn -0.7772 0.1052 0.6204
vn 0.5572 -0.7451 0.3666
vn 0.4797 -0.6205 0.6204
vn -0.5572 -0.7451 0.3666
vn -0.4797 -0.6205 0.6204
vn 0.9238 0.1100 0.3667
vn 0.7770 0.1052 0.6206
vn 0.3666 -0.8550 0.3668
vn 0.2975 -0.7256 0.6205
vn 0.3666 0.8550 0.3668
vn 0.2975 0.7256 0.6205
vn 0.9238 -0.1100 0.3667
vn 0.7770 -0.1052 0.6206
vn -0.5572 0.7451 0.3666
vn -0.4797 0.6205 0.6204
vn 0.5572 0.7451 0.3666
vn 0.4797 0.6205 0.6204
vn -0.9238 -0.1100 0.3667
vn -0.7772 -0.1052 0.6204
vn -0.3667 0.8550 0.3667
vn -0.2975 0.7257 0.6204
vn -0.3667 -0.8551 0.3667
vn -0.2975 -0.7257 0.6204
vn 0.5669 0.4227 -0.7071
vn 0.5421 0.4057 -0.7359
vn 0.1830 0.6830 -0.7071
vn 0.1830 0.6831 -0.7070
vn -0.1830 0.6831 -0.7071
vn -0.1830 0.6830 -0.7071
vn -0.4999 0.4999 -0.7072
vn -0.5001 0.5001 -0.7070
vn -0.6830 0.1830 -0.7071
vn -0.6509 -0.2759 -0.7073
vn -0.6511 -0.2760 -0.7071
vn -0.4338 -0.4255 -0.7942
vn -0.5010 -0.4899 -0.7135
vn -0.2049 -0.5636 -0.8003
vn -0.2049 -0.5636 -0.8002
vn 0.1278 -0.5860 -0.8002
vn 0.1278 -0.5859 -0.8002
vn 0.4436 -0.4037 -0.8002
vn 0.4435 -0.4036 -0.8002
vn 0.5905 -0.1044 -0.8002
vn 0.6073 0.1885 -0.7718
vn 0.5802 0.1803 -0.7943
vn -0.8016 -0.5978 -0.0000
vn -0.9693 -0.2460 -0.0000
vn -0.9847 0.1741 -0.0000
vn -0.7396 0.6730 -0.0000
vn -0.2131 0.9770 -0.0000
vn 0.3416 0.9398 -0.0000
vn 0.6735 0.7392 -0.0000
vn 0.9207 0.3903 -0.0000
# 179 vertex normals

vt 0.7220 0.8583 0.0000
vt 0.7182 0.8541 0.0000
vt 0.7213 0.8525 0.0000
vt 0.7250 0.8559 0.0000
vt 0.7168 0.8483 0.0000
vt 0.7205 0.8488 0.0000
vt 0.7195 0.8431 0.0000
vt 0.7222 0.8454 0.0000
vt 0.7240 0.8399 0.0000
vt 0.7254 0.8431 0.0000
vt 0.7296 0.8391 0.0000
vt 0.7292 0.8425 0.0000
vt 0.7360 0.8413 0.0000
vt 0.7340 0.8443 0.0000
vt 0.7472 0.8542 0.0000
vt 0.7438 0.8553 0.0000
vt 0.7471 0.8583 0.0000
vt 0.7439 0.8575 0.0000
vt 0.7454 0.8615 0.0000
vt 0.7429 0.8594 0.0000
vt 0.7424 0.8637 0.0000
vt 0.7412 0.8606 0.0000
vt 0.7385 0.8643 0.0000
vt 0.7388 0.8609 0.0000
vt 0.4217 0.8585 0.0000
vt 0.4194 0.8572 0.0000
vt 0.4112 0.8466 0.0000
vt 0.4110 0.8457 0.0000
vt 0.4111 0.8453 0.0000
vt 0.4115 0.8450 0.0000
vt 0.4125 0.8449 0.0000
vt 0.4244 0.8487 0.0000
vt 0.4270 0.8512 0.0000
vt 0.4274 0.8537 0.0000
vt 0.4264 0.8563 0.0000
vt 0.4242 0.8580 0.0000
vt 0.7215 0.8525 0.0000
vt 0.7243 0.8512 0.0000
vt 0.7260 0.8529 0.0000
vt 0.7252 0.8559 0.0000
vt 0.7208 0.8488 0.0000
vt 0.7238 0.8491 0.0000
vt 0.7223 0.8455 0.0000
vt 0.7246 0.8473 0.0000
vt 0.7254 0.8433 0.0000
vt 0.7265 0.8461 0.0000
vt 0.7292 0.8426 0.0000
vt 0.7290 0.8457 0.0000
vt 0.7339 0.8445 0.0000
vt 0.7315 0.8464 0.0000
vt 0.7434 0.8550 0.0000
vt 0.7332 0.8482 0.0000
vt 0.7438 0.8574 0.0000
vt 0.7338 0.8504 0.0000
vt 0.7331 0.8524 0.0000
vt 0.7410 0.8606 0.0000
vt 0.7312 0.8537 0.0000
vt 0.7385 0.8608 0.0000
vt 0.7287 0.8539 0.0000
vt 0.8693 0.8539 0.0000
vt 0.8698 0.8551 0.0000
vt 0.8682 0.8567 0.0000
vt 0.8672 0.8559 0.0000
vt 0.8720 0.8531 0.0000
vt 0.8720 0.8545 0.0000
vt 0.8746 0.8539 0.0000
vt 0.8741 0.8551 0.0000
vt 0.8767 0.8559 0.0000
vt 0.8757 0.8567 0.0000
vt 0.8777 0.8591 0.0000
vt 0.8765 0.8591 0.0000
vt 0.8767 0.8622 0.0000
vt 0.8757 0.8614 0.0000
vt 0.8746 0.8643 0.0000
vt 0.8741 0.8630 0.0000
vt 0.8720 0.8650 0.0000
vt 0.8720 0.8636 0.0000
vt 0.8693 0.8643 0.0000
vt 0.8698 0.8630 0.0000
vt 0.8672 0.8622 0.0000
vt 0.8682 0.8614 0.0000
vt 0.8662 0.8591 0.0000
vt 0.8675 0.8591 0.0000
vt 0.8683 0.8568 0.0000
vt 0.8699 0.8552 0.0000
vt 0.8704 0.8565 0.0000
vt 0.8704 0.8585 0.0000
vt 0.8720 0.8546 0.0000
vt 0.8720 0.8578 0.0000
vt 0.8741 0.8552 0.0000
vt 0.8735 0.8565 0.0000
vt 0.8757 0.8568 0.0000
vt 0.8735 0.8585 0.0000
vt 0.8764 0.8591 0.0000
vt 0.8752 0.8591 0.0000
vt 0.8757 0.8613 0.0000
vt 0.8735 0.8596 0.0000
vt 0.8741 0.8629 0.0000
vt 0.8735 0.8617 0.0000
vt 0.8720 0.8635 0.0000
vt 0.8720 0.8604 0.0000
vt 0.8699 0.8629 0.0000
vt 0.8704 0.8616 0.0000
vt 0.8683 0.8614 0.0000
vt 0.8704 0.8597 0.0000
vt 0.8676 0.8591 0.0000
vt 0.8688 0.8590 0.0000
vt 0.6331 0.7487 0.0000
vt 0.6335 0.7489 0.0000
vt 0.6358 0.7492 0.0000
vt 0.6357 0.7490 0.0000
vt 0.6347 0.7507 0.0000
vt 0.6349 0.7507 0.0000
vt 0.6331 0.7527 0.0000
vt 0.6335 0.7525 0.0000
vt 0.6357 0.7524 0.0000
vt 0.6358 0.7522 0.0000
vt 0.6368 0.7547 0.0000
vt 0.6368 0.7543 0.0000
vt 0.6378 0.7524 0.0000
vt 0.6377 0.7522 0.0000
vt 0.6404 0.7527 0.0000
vt 0.6400 0.7525 0.0000
vt 0.6388 0.7507 0.0000
vt 0.6386 0.7507 0.0000
vt 0.6404 0.7487 0.0000
vt 0.6400 0.7489 0.0000
vt 0.6378 0.7490 0.0000
vt 0.6377 0.7492 0.0000
vt 0.6368 0.7466 0.0000
vt 0.6368 0.7471 0.0000
vt 0.6359 0.7492 0.0000
vt 0.6336 0.7489 0.0000
vt 0.6368 0.7507 0.0000
vt 0.6350 0.7507 0.0000
vt 0.6336 0.7524 0.0000
vt 0.6359 0.7521 0.0000
vt 0.6368 0.7542 0.0000
vt 0.6376 0.7521 0.0000
vt 0.6399 0.7524 0.0000
vt 0.6385 0.7507 0.0000
vt 0.6399 0.7489 0.0000
vt 0.6376 0.7492 0.0000
vt 0.6368 0.7472 0.0000
vt 0.8671 0.8559 0.0000
vt 0.8692 0.8537 0.0000
vt 0.8720 0.8530 0.0000
vt 0.8747 0.8537 0.0000
vt 0.8768 0.8558 0.0000
vt 0.8780 0.8591 0.0000
vt 0.8768 0.8623 0.0000
vt 0.8746 0.8644 0.0000
vt 0.8719 0.8651 0.0000
vt 0.8692 0.8644 0.0000
vt 0.8671 0.8623 0.0000
vt 0.8660 0.8592 0.0000
vt 0.8705 0.8566 0.0000
vt 0.8705 0.8585 0.0000
vt 0.8720 0.8579 0.0000
vt 0.8735 0.8566 0.0000
vt 0.8751 0.8591 0.0000
vt 0.8735 0.8616 0.0000
vt 0.8720 0.8602 0.0000
vt 0.8705 0.8616 0.0000
vt 0.8705 0.8596 0.0000
vt 0.8689 0.8590 0.0000
vt 0.4172 0.8598 0.0000
vt 0.4211 0.8619 0.0000
vt 0.4210 0.8621 0.0000
vt 0.4256 0.8613 0.0000
vt 0.4257 0.8614 0.0000
vt 0.4292 0.8584 0.0000
vt 0.4293 0.8584 0.0000
vt 0.4308 0.8541 0.0000
vt 0.4310 0.8541 0.0000
vt 0.4301 0.8496 0.0000
vt 0.4302 0.8496 0.0000
vt 0.4261 0.8458 0.0000
vt 0.4262 0.8457 0.0000
vt 0.4128 0.8407 0.0000
vt 0.4099 0.8410 0.0000
vt 0.4098 0.8409 0.0000
vt 0.4076 0.8426 0.0000
vt 0.4075 0.8426 0.0000
vt 0.4067 0.8453 0.0000
vt 0.4065 0.8453 0.0000
vt 0.4073 0.8482 0.0000
vt 0.4072 0.8483 0.0000
vt 0.4190 0.8578 0.0000
vt 0.4216 0.8592 0.0000
vt 0.4105 0.8469 0.0000
vt 0.4103 0.8456 0.0000
vt 0.4106 0.8449 0.0000
vt 0.4112 0.8444 0.0000
vt 0.4125 0.8442 0.0000
vt 0.4248 0.8480 0.0000
vt 0.4277 0.8509 0.0000
vt 0.4281 0.8538 0.0000
vt 0.4270 0.8567 0.0000
vt 0.4245 0.8587 0.0000
# 200 texture coords

o tuerca_right_back
g tuerca_right_back
usemtl Material__25
s 8
f 1/1/1 2/2/2 3/3/3 
f 3/3/3 4/4/4 1/1/1 
f 5/5/5 6/6/5 3/3/3 
f 3/3/3 2/2/2 5/5/5 
f 7/7/6 8/8/6 6/6/5 
f 6/6/5 5/5/5 7/7/6 
f 9/9/7 10/10/7 8/8/6 
f 8/8/6 7/7/6 9/9/7 
f 11/11/8 12/12/8 10/10/7 
f 10/10/7 9/9/7 11/11/8 
f 13/13/9 14/14/9 12/12/8 
f 12/12/8 11/11/8 13/13/9 
f 15/15/10 16/16/10 14/14/9 
f 14/14/9 13/13/9 15/15/10 
f 17/17/11 18/18/11 16/16/10 
f 16/16/10 15/15/10 17/17/11 
f 19/19/12 20/20/12 18/18/11 
f 18/18/11 17/17/11 19/19/12 
f 21/21/13 22/22/13 20/20/12 
f 20/20/12 19/19/12 21/21/13 
f 23/23/14 24/24/15 22/22/13 
f 22/22/13 21/21/13 23/23/14 
f 23/23/14 1/1/1 4/4/4 
f 4/4/4 24/24/15 23/23/14 
s 1
f 25/25/16 26/26/16 27/27/16 
f 27/27/16 28/28/16 29/29/16 
f 29/29/16 30/30/16 31/31/16 
f 27/27/16 29/29/16 31/31/16 
f 31/31/16 32/32/16 33/33/16 
f 27/27/16 31/31/16 33/33/16 
f 33/33/16 34/34/16 35/35/16 
f 27/27/16 33/33/16 35/35/16 
f 25/25/16 27/27/16 35/35/16 
f 36/36/16 25/25/16 35/35/16 
s off
f 37/37/17 38/38/17 39/39/17 
f 39/39/17 40/40/17 37/37/17 
f 41/41/17 42/42/17 38/38/17 
f 38/38/17 37/37/17 41/41/17 
f 43/43/17 44/44/17 42/42/17 
f 42/42/17 41/41/17 43/43/17 
f 45/45/17 46/46/17 44/44/17 
f 44/44/17 43/43/17 45/45/17 
f 47/47/17 48/48/17 46/46/17 
f 46/46/17 45/45/17 47/47/17 
f 47/47/17 49/49/17 50/50/17 
f 50/50/17 48/48/17 47/47/17 
f 49/49/17 51/51/17 52/52/17 
f 52/52/17 50/50/17 49/49/17 
f 51/51/17 53/53/17 54/54/17 
f 54/54/17 52/52/17 51/51/17 
f 53/53/17 55/20/17 56/55/17 
f 56/55/17 54/54/17 53/53/17 
f 57/56/17 58/57/17 56/55/17 
f 56/55/17 55/20/17 57/56/17 
f 59/58/17 60/59/17 58/57/17 
f 58/57/17 57/56/17 59/58/17 
f 40/40/17 39/39/17 60/59/17 
f 60/59/17 59/58/17 40/40/17 
f 61/60/18 62/61/18 63/62/18 
f 63/62/18 64/63/18 61/60/18 
f 65/64/19 66/65/19 62/61/19 
f 62/61/19 61/60/19 65/64/19 
f 67/66/20 68/67/20 66/65/20 
f 66/65/20 65/64/20 67/66/20 
f 69/68/21 70/69/21 68/67/21 
f 68/67/21 67/66/21 69/68/21 
f 71/70/22 72/71/22 70/69/22 
f 70/69/22 69/68/22 71/70/22 
f 73/72/23 74/73/23 72/71/23 
f 72/71/23 71/70/23 73/72/23 
f 75/74/24 76/75/24 74/73/24 
f 74/73/24 73/72/24 75/74/24 
f 77/76/25 78/77/25 76/75/25 
f 76/75/25 75/74/25 77/76/25 
f 79/78/26 80/79/26 78/77/26 
f 78/77/26 77/76/26 79/78/26 
f 81/80/27 82/81/27 80/79/27 
f 80/79/27 79/78/27 81/80/27 
f 83/82/28 84/83/28 82/81/28 
f 82/81/28 81/80/28 83/82/28 
f 64/63/29 63/62/29 84/83/29 
f 84/83/29 83/82/29 64/63/29 
f 85/84/17 86/85/17 87/86/17 
f 87/86/17 88/87/17 85/84/17 
f 89/88/17 90/89/17 87/86/17 
f 87/86/17 86/85/17 89/88/17 
f 89/88/17 91/90/17 92/91/17 
f 92/91/17 90/89/17 89/88/17 
f 93/92/17 94/93/17 92/91/17 
f 92/91/17 91/90/17 93/92/17 
f 93/92/17 95/94/17 96/95/17 
f 96/95/17 94/93/17 93/92/17 
f 97/96/17 98/97/17 96/95/17 
f 96/95/17 95/94/17 97/96/17 
f 97/96/17 99/98/17 100/99/17 
f 100/99/17 98/97/17 97/96/17 
f 101/100/17 102/101/17 100/99/17 
f 100/99/17 99/98/17 101/100/17 
f 101/100/17 103/102/17 104/103/17 
f 104/103/17 102/101/17 101/100/17 
f 105/104/17 106/105/17 104/103/17 
f 104/103/17 103/102/17 105/104/17 
f 105/104/17 107/106/17 108/107/17 
f 108/107/17 106/105/17 105/104/17 
f 85/84/17 88/87/17 108/107/17 
f 108/107/17 107/106/17 85/84/17 
f 109/108/30 110/109/30 111/110/30 
f 111/110/30 112/111/30 109/108/30 
f 113/112/31 114/113/31 110/109/31 
f 110/109/31 109/108/31 113/112/31 
f 115/114/32 116/115/32 114/113/32 
f 114/113/32 113/112/32 115/114/32 
f 117/116/33 118/117/33 116/115/33 
f 116/115/33 115/114/33 117/116/33 
f 119/118/34 120/119/34 118/117/34 
f 118/117/34 117/116/34 119/118/34 
f 121/120/35 122/121/35 120/119/35 
f 120/119/35 119/118/35 121/120/35 
f 123/122/36 124/123/36 122/121/36 
f 122/121/36 121/120/36 123/122/36 
f 125/124/37 126/125/37 124/123/37 
f 124/123/37 123/122/37 125/124/37 
f 127/126/38 128/127/38 126/125/38 
f 126/125/38 125/124/38 127/126/38 
f 129/128/39 130/129/39 128/127/39 
f 128/127/39 127/126/39 129/128/39 
f 131/130/40 132/131/40 130/129/40 
f 130/129/40 129/128/40 131/130/40 
f 112/111/41 111/110/41 132/131/41 
f 132/131/41 131/130/41 112/111/41 
f 133/132/17 134/133/17 135/134/17 
f 134/133/17 136/135/17 135/134/17 
f 136/135/17 137/136/17 135/134/17 
f 137/136/17 138/137/17 135/134/17 
f 138/137/17 139/138/17 135/134/17 
f 139/138/17 140/139/17 135/134/17 
f 140/139/17 141/140/17 135/134/17 
f 141/140/17 142/141/17 135/134/17 
f 142/141/17 143/142/17 135/134/17 
f 143/142/17 144/143/17 135/134/17 
f 144/143/17 145/144/17 135/134/17 
f 145/144/17 133/132/17 135/134/17 
f 4/4/42 3/3/42 37/37/42 
f 37/37/43 40/40/43 4/4/43 
f 3/3/44 6/6/44 41/41/44 
f 41/41/45 37/37/45 3/3/45 
f 6/6/46 8/8/46 43/43/46 
f 43/43/47 41/41/47 6/6/47 
f 8/8/48 10/10/48 45/45/48 
f 45/45/49 43/43/49 8/8/49 
f 10/10/50 12/12/50 47/47/50 
f 47/47/51 45/45/51 10/10/51 
f 47/47/52 12/12/52 14/14/52 
f 14/14/53 49/49/53 47/47/53 
f 14/14/54 16/16/54 51/51/54 
f 51/51/55 49/49/55 14/14/55 
f 16/16/56 18/18/56 53/53/56 
f 53/53/57 51/51/57 16/16/57 
f 18/18/58 20/20/58 55/20/58 
f 55/20/59 53/53/59 18/18/59 
f 55/20/60 20/20/60 22/22/60 
f 22/22/61 57/56/61 55/20/61 
f 57/56/62 22/22/62 24/24/62 
f 24/24/63 59/58/63 57/56/63 
f 59/58/64 24/24/64 4/4/64 
f 4/4/65 40/40/65 59/58/65 
f 39/145/66 38/146/66 61/60/66 
f 61/60/66 64/63/66 39/145/66 
f 38/146/45 42/147/45 65/64/45 
f 65/64/45 61/60/45 38/146/45 
f 42/147/67 44/148/67 67/66/67 
f 67/66/67 65/64/67 42/147/67 
f 44/148/68 46/149/68 69/68/68 
f 69/68/48 67/66/48 44/148/48 
f 46/149/51 48/150/51 71/70/51 
f 71/70/69 69/68/69 46/149/69 
f 48/150/70 50/151/70 73/72/70 
f 73/72/71 71/70/71 48/150/71 
f 50/151/72 52/152/72 75/74/72 
f 75/74/73 73/72/73 50/151/73 
f 52/152/74 54/153/74 77/76/74 
f 77/76/75 75/74/75 52/152/75 
f 54/153/76 56/154/76 79/78/76 
f 79/78/77 77/76/77 54/153/77 
f 79/78/78 56/154/78 58/155/78 
f 58/155/79 81/80/79 79/78/79 
f 81/80/80 58/155/80 60/156/80 
f 60/156/81 83/82/81 81/80/81 
f 83/82/82 60/156/82 39/145/82 
f 39/145/83 64/63/83 83/82/83 
f 63/62/84 62/61/84 86/85/84 
f 86/85/85 85/84/85 63/62/85 
f 62/61/86 66/65/86 89/88/86 
f 89/88/87 86/85/87 62/61/87 
f 66/65/88 68/67/88 91/90/88 
f 91/90/89 89/88/89 66/65/89 
f 68/67/48 70/69/48 93/92/48 
f 93/92/68 91/90/68 68/67/68 
f 70/69/90 72/71/90 95/94/90 
f 95/94/51 93/92/51 70/69/51 
f 72/71/91 74/73/91 97/96/91 
f 97/96/92 95/94/92 72/71/92 
f 74/73/93 76/75/93 99/98/93 
f 99/98/93 97/96/93 74/73/93 
f 76/75/94 78/77/94 101/100/94 
f 101/100/95 99/98/95 76/75/95 
f 78/77/96 80/79/96 103/102/96 
f 103/102/97 101/100/97 78/77/97 
f 80/79/98 82/81/98 105/104/98 
f 105/104/99 103/102/99 80/79/99 
f 82/81/100 84/83/100 107/106/100 
f 107/106/100 105/104/100 82/81/100 
f 84/83/83 63/62/83 85/84/83 
f 85/84/101 107/106/101 84/83/101 
f 88/87/102 87/86/102 109/157/102 
f 109/157/103 112/158/103 88/87/103 
f 109/157/104 87/86/104 90/89/104 
f 90/89/105 113/159/105 109/157/105 
f 90/89/106 92/91/106 115/160/106 
f 115/160/107 113/159/107 90/89/107 
f 115/160/108 92/91/108 94/93/108 
f 94/93/109 117/93/109 115/160/109 
f 94/93/110 96/95/110 119/161/110 
f 119/161/111 117/93/111 94/93/111 
f 119/161/112 96/95/112 98/97/112 
f 98/97/113 121/97/113 119/161/113 
f 98/97/114 100/99/114 123/162/114 
f 123/162/115 121/97/115 98/97/115 
f 123/162/116 100/99/116 102/101/116 
f 102/101/117 125/163/117 123/162/117 
f 102/101/118 104/103/118 127/164/118 
f 127/164/119 125/163/119 102/101/119 
f 127/164/120 104/103/120 106/105/120 
f 106/105/121 129/165/121 127/164/121 
f 106/105/122 108/107/122 131/166/122 
f 131/166/123 129/165/123 106/105/123 
f 131/166/124 108/107/124 88/87/124 
f 88/87/125 112/158/125 131/166/125 
f 111/110/126 110/109/126 134/133/126 
f 134/133/127 133/132/127 111/110/127 
f 134/133/128 110/109/128 114/113/128 
f 114/113/129 136/135/129 134/133/129 
f 114/113/130 116/115/130 137/136/130 
f 137/136/131 136/135/131 114/113/131 
f 137/136/132 116/115/132 118/117/132 
f 118/117/133 138/137/133 137/136/133 
f 118/117/134 120/119/134 139/138/134 
f 139/138/135 138/137/135 118/117/135 
f 139/138/136 120/119/136 122/121/136 
f 122/121/137 140/139/137 139/138/137 
f 122/121/138 124/123/138 141/140/138 
f 141/140/139 140/139/139 122/121/139 
f 141/140/140 124/123/140 126/125/140 
f 126/125/141 142/141/141 141/140/141 
f 126/125/142 128/127/142 143/142/142 
f 143/142/143 142/141/143 126/125/143 
f 143/142/144 128/127/144 130/129/144 
f 130/129/145 144/143/145 143/142/145 
f 130/129/146 132/131/146 145/144/146 
f 145/144/147 144/143/147 130/129/147 
f 145/144/148 132/131/148 111/110/148 
f 111/110/149 133/132/149 145/144/149 
f 146/167/150 147/168/150 2/169/150 
f 2/169/151 1/167/151 146/167/151 
f 147/168/152 148/170/152 5/171/152 
f 5/171/153 2/169/153 147/168/153 
f 148/170/154 149/172/154 7/173/154 
f 7/173/155 5/171/155 148/170/155 
f 149/172/156 150/174/156 9/175/156 
f 9/175/157 7/173/157 149/172/157 
f 150/174/158 151/176/158 11/177/158 
f 11/177/158 9/175/158 150/174/158 
f 151/176/159 152/178/159 13/179/159 
f 13/179/160 11/177/160 151/176/160 
f 152/178/161 153/180/161 15/180/161 
f 15/180/162 13/179/162 152/178/162 
f 153/180/163 154/181/163 17/182/163 
f 17/182/164 15/180/164 153/180/164 
f 154/181/165 155/183/165 19/184/165 
f 19/184/166 17/182/166 154/181/166 
f 155/183/167 156/185/167 21/186/167 
f 21/186/168 19/184/168 155/183/168 
f 156/185/169 157/187/169 23/188/169 
f 23/188/169 21/186/169 156/185/169 
f 157/187/170 146/167/170 1/167/170 
f 1/167/171 23/188/171 157/187/171 
f 146/167/16 158/189/16 159/190/16 
f 159/190/16 147/168/16 146/167/16 
f 146/167/16 157/187/16 160/191/16 
f 160/191/16 158/189/16 146/167/16 
f 157/187/16 156/185/16 161/192/16 
f 161/192/16 160/191/16 157/187/16 
f 156/185/16 155/183/16 162/193/16 
f 162/193/16 161/192/16 156/185/16 
f 154/181/16 163/194/16 162/193/16 
f 162/193/16 155/183/16 154/181/16 
f 153/180/16 164/195/16 163/194/16 
f 163/194/16 154/181/16 153/180/16 
f 152/178/16 165/196/16 164/195/16 
f 164/195/16 153/180/16 152/178/16 
f 152/178/16 151/176/16 166/197/16 
f 166/197/16 165/196/16 152/178/16 
f 150/174/16 167/198/16 166/197/16 
f 166/197/16 151/176/16 150/174/16 
f 149/172/16 168/199/16 167/198/16 
f 167/198/16 150/174/16 149/172/16 
f 148/170/16 169/200/16 168/199/16 
f 168/199/16 149/172/16 148/170/16 
f 148/170/16 147/168/16 159/190/16 
f 159/190/16 169/200/16 148/170/16 
f 158/189/172 26/26/172 25/25/172 
f 25/25/172 159/190/172 158/189/172 
f 160/191/173 27/27/173 26/26/173 
f 26/26/173 158/189/173 160/191/173 
f 161/192/174 28/28/174 27/27/174 
f 27/27/174 160/191/174 161/192/174 
f 162/193/175 29/29/175 28/28/175 
f 28/28/175 161/192/175 162/193/175 
f 163/194/176 30/30/176 29/29/176 
f 29/29/176 162/193/176 163/194/176 
f 164/195/177 31/31/177 30/30/177 
f 30/30/177 163/194/177 164/195/177 
f 165/196/178 32/32/178 31/31/178 
f 31/31/178 164/195/178 165/196/178 
f 166/197/179 33/33/179 32/32/179 
f 32/32/179 165/196/179 166/197/179 
f 167/198/28 34/34/28 33/33/28 
f 33/33/28 166/197/28 167/198/28 
f 168/199/27 35/35/27 34/34/27 
f 34/34/27 167/198/27 168/199/27 
f 169/200/26 36/36/26 35/35/26 
f 35/35/26 168/199/26 169/200/26 
f 159/190/25 25/25/25 36/36/25 
f 36/36/25 169/200/25 159/190/25 
# 334 faces

