# 3ds Max Wavefront OBJ Exporter v0.97b - (c)2007 guruware
# File Created: 26.07.2021 16:25:31

mtllib vulture_left_wing.mtl

#
# object leftWing
#

v  0.0181 0.0009 0.0861
v  0.0009 0.0010 0.0405
v  0.0500 -0.0067 0.0783
v  0.0515 0.0021 -0.0801
v  0.0211 0.0135 0.0027
v  0.0544 0.0073 0.0772
v  0.0225 0.0138 0.0770
v  0.1516 0.0057 -0.0909
v  0.1032 -0.0131 0.0919
v  0.1718 -0.0287 0.0871
v  0.2669 0.0777 -0.0406
v  0.1065 0.0006 0.0884
v  0.2571 -0.0315 0.0923
v  0.1741 -0.0191 0.0892
v  0.2572 -0.0335 0.0902
v  0.4117 0.0702 0.0575
v  0.3532 -0.0130 0.1131
# 17 vertices

vn 0.0457 -0.6217 0.7819
vn -0.1358 -0.9904 -0.0244
vn -0.1301 -0.7292 0.6719
vn 0.2172 -0.2599 -0.9409
vn 0.2542 0.9666 -0.0322
vn 0.0194 0.7611 0.6484
vn 0.2649 0.8002 0.5381
vn 0.2755 0.0282 -0.9609
vn -0.1598 -0.5992 0.7845
vn -0.0096 -0.8865 0.4626
vn 0.4079 0.6480 -0.6432
vn 0.0963 0.7487 0.6559
vn -0.1404 -0.0571 0.9885
vn -0.0341 0.4621 0.8862
vn 0.0684 -0.9977 0.0019
vn 0.8838 0.4669 -0.0300
vn 0.6424 -0.3971 0.6555
# 17 vertex normals

vt 0.9589 0.0246 0.0000
vt 0.9702 0.1489 0.0000
vt 0.8719 0.0585 0.0000
vt 0.9237 0.5380 0.0000
vt 0.9961 0.2623 0.0000
vt 0.8730 0.0171 0.0000
vt 0.9913 0.0589 0.0000
vt 0.6105 0.5718 0.0000
vt 0.7233 0.0456 0.0000
vt 0.5289 0.0820 0.0000
vt 0.3632 0.5258 0.0000
vt 0.7241 0.0117 0.0000
vt 0.2900 0.1065 0.0000
vt 0.5263 0.0356 0.0000
vt 0.2909 0.1221 0.0000
vt 0.0191 0.4441 0.0000
vt 0.0622 0.1707 0.0000
# 17 texture coords

o leftWing
g leftWing
usemtl Material__3
s 1
f 1/1/1 2/2/2 3/3/3 
f 4/4/4 5/5/5 6/6/6 
f 7/7/7 1/1/1 3/3/3 
f 3/3/3 6/6/6 7/7/7 
f 5/5/5 7/7/7 6/6/6 
f 4/4/4 3/3/3 2/2/2 
f 3/3/3 4/4/4 8/8/8 
f 9/9/9 8/8/8 10/10/10 
f 10/10/10 8/8/8 11/11/11 
f 12/12/12 6/6/6 9/9/9 
f 13/13/13 14/14/14 15/15/15 
f 14/14/14 12/12/12 10/10/10 
f 14/14/14 13/13/13 11/11/11 
f 6/6/6 12/12/12 8/8/8 
f 8/8/8 9/9/9 3/3/3 
f 11/11/11 15/15/15 10/10/10 
f 3/3/3 9/9/9 6/6/6 
f 10/10/10 15/15/15 14/14/14 
f 9/9/9 10/10/10 12/12/12 
f 11/11/11 8/8/8 14/14/14 
f 8/8/8 12/12/12 14/14/14 
f 8/8/8 4/4/4 6/6/6 
f 11/11/11 16/16/16 15/15/15 
f 17/17/17 15/15/15 16/16/16 
f 15/15/15 17/17/17 13/13/13 
f 11/11/11 13/13/13 16/16/16 
f 13/13/13 17/17/17 16/16/16 
# 27 faces

