# 3ds Max Wavefront OBJ Exporter v0.97b - (c)2007 guruware
# File Created: 28.07.2021 20:20:30

mtllib minecraftVillagerTorso.mtl

#
# object Villager
#

v  -4.0000 13.8601 3.5679
v  -4.0000 13.8601 -4.4321
v  4.0000 13.8601 -4.4321
v  4.0000 13.8601 3.5679
v  -4.0000 23.8601 3.5679
v  4.0000 23.8601 3.5679
v  4.0000 23.8601 -4.4321
v  -4.0000 23.8601 -4.4321
v  -4.1935 -6.6236 -3.5773
v  -4.1935 14.3439 -3.5773
v  4.1935 14.3439 -3.5773
v  4.1935 -6.6236 -3.5773
v  -4.1935 -6.6236 2.7130
v  4.1935 -6.6236 2.7130
v  4.1935 14.3439 2.7130
v  -4.1935 14.3439 2.7130
v  -8.0000 5.2618 2.8489
v  -8.0000 10.9187 -2.8079
v  -4.0000 10.9187 -2.8079
v  -4.0000 5.2618 2.8489
v  -8.0000 8.0902 5.6773
v  -4.0000 8.0902 5.6773
v  -4.0000 13.7471 0.0205
v  -8.0000 13.7471 0.0205
v  -4.0000 8.0902 0.0205
v  4.0000 8.0902 0.0205
v  4.0000 5.2618 2.8489
v  4.0000 8.0902 5.6773
v  4.0000 10.9187 2.8489
v  -4.0000 10.9187 2.8489
v  4.0000 10.9187 -2.8079
v  8.0000 10.9187 -2.8079
v  8.0000 5.2618 2.8489
v  8.0000 8.0902 5.6773
v  8.0000 13.7471 0.0205
v  4.0000 13.7471 0.0205
v  -4.0000 1.8601 2.5679
v  -4.0000 1.8601 -3.4321
v  4.0000 1.8601 -3.4321
v  4.0000 1.8601 2.5679
v  -4.0000 13.8601 2.5679
v  4.0000 13.8601 2.5679
v  4.0000 13.8601 -3.4321
v  -4.0000 13.8601 -3.4321
v  -1.0000 12.8601 5.5679
v  -1.0000 12.8601 3.5679
v  1.0000 12.8601 3.5679
v  1.0000 12.8601 5.5679
v  -1.0000 16.8601 5.5679
v  1.0000 16.8601 5.5679
v  1.0000 16.8601 3.5679
v  -1.0000 16.8601 3.5679
# 52 vertices

vn 0.0000 -1.0000 -0.0000
vn 0.0000 1.0000 -0.0000
vn 0.0000 0.0000 1.0000
vn 1.0000 0.0000 -0.0000
vn 0.0000 0.0000 -1.0000
vn -1.0000 0.0000 -0.0000
vn 0.0000 -0.0000 1.0000
vn 0.0000 1.0000 0.0000
vn 0.0000 -0.7071 -0.7071
vn 0.0000 0.7071 0.7071
vn 0.0000 -0.7071 0.7071
vn 0.0000 0.7071 -0.7071
# 12 vertex normals

vt 0.2500 0.8750 0.0000
vt 0.2500 1.0000 0.0000
vt 0.3750 1.0000 0.0000
vt 0.3750 0.8750 0.0000
vt 0.1250 0.8750 0.0000
vt 0.1250 1.0000 0.0000
vt 0.1250 0.7190 0.0000
vt 0.2500 0.7190 0.0000
vt 0.3750 0.7190 0.0000
vt 0.5000 0.7190 0.0000
vt 0.5000 0.8750 0.0000
vt 0.0000 0.7190 0.0000
vt 0.0000 0.8750 0.0000
vt 0.4375 0.0000 0.0000
vt 0.4375 0.3125 0.0000
vt 0.3125 0.3125 0.0000
vt 0.3125 0.0000 0.0000
vt 0.0939 0.0000 0.0000
vt 0.2185 -0.0000 0.0000
vt 0.2185 0.3125 0.0000
vt 0.0939 0.3125 0.0000
vt 0.2185 0.4063 0.0000
vt 0.3125 0.4063 0.0000
vt 0.0939 0.4063 0.0000
vt 0.0000 0.3125 0.0000
vt 0.0000 0.0000 0.0000
vt 0.9375 0.4687 0.0000
vt 0.9375 0.5938 0.0000
vt 0.8750 0.5938 0.0000
vt 0.8750 0.4687 0.0000
vt 0.7500 0.4687 0.0000
vt 0.8125 0.4687 0.0000
vt 0.8125 0.5938 0.0000
vt 0.7500 0.5938 0.0000
vt 0.8125 0.6500 0.0000
vt 0.8750 0.6500 0.0000
vt 0.7500 0.6500 0.0000
vt 0.6875 0.5938 0.0000
vt 0.6875 0.4687 0.0000
vt 1.0000 0.2814 0.0000
vt 1.0000 0.3437 0.0000
vt 0.8750 0.3437 0.0000
vt 0.8750 0.2814 0.0000
vt 0.6875 0.2814 0.0000
vt 0.8125 0.2814 0.0000
vt 0.8125 0.3437 0.0000
vt 0.6875 0.3437 0.0000
vt 0.8125 0.4000 0.0000
vt 0.9375 0.4000 0.0000
vt 0.9375 0.3437 0.0000
vt 0.6875 0.4000 0.0000
vt 0.6250 0.3437 0.0000
vt 0.6250 0.2814 0.0000
vt 0.4687 0.5938 0.0000
vt 0.4687 0.6875 0.0000
vt 0.6250 0.6875 0.0000
vt 0.6249 0.5938 0.0000
vt 0.3438 0.5938 0.0000
vt 0.3438 0.6875 0.0000
vt 0.3438 0.4062 0.0000
vt 0.4687 0.4062 0.0000
vt 0.5625 0.4062 0.0000
vt 0.5625 0.5938 0.0000
vt 0.6875 0.4062 0.0000
vt 0.2500 0.4062 0.0000
vt 0.2500 0.5938 0.0000
vt 0.4375 0.9687 0.0000
vt 0.4375 1.0000 0.0000
vt 0.4688 1.0000 0.0000
vt 0.4688 0.9687 0.0000
vt 0.4063 0.9687 0.0000
vt 0.4063 1.0000 0.0000
vt 0.4063 0.9064 0.0000
vt 0.4375 0.9064 0.0000
vt 0.4688 0.9064 0.0000
vt 0.5000 0.9064 0.0000
vt 0.5000 0.9687 0.0000
vt 0.3750 0.9064 0.0000
vt 0.3750 0.9687 0.0000
# 79 texture coords

o Villager
g Villager
usemtl Material__25
s off
f 1/1/1 2/2/1 3/3/1 
f 3/3/1 4/4/1 1/1/1 
f 5/5/2 6/1/2 7/2/2 
f 7/2/2 8/6/2 5/5/2 
f 1/7/3 4/8/3 6/1/3 
f 6/1/3 5/5/3 1/7/3 
f 4/8/4 3/9/4 7/4/4 
f 7/4/4 6/1/4 4/8/4 
f 3/9/5 2/10/5 8/11/5 
f 8/11/5 7/4/5 3/9/5 
f 2/12/6 1/7/6 5/5/6 
f 5/5/6 8/13/6 2/12/6 
f 9/14/5 10/15/5 11/16/5 
f 11/16/5 12/17/5 9/14/5 
f 13/18/7 14/19/7 15/20/7 
f 15/20/7 16/21/7 13/18/7 
f 9/22/1 12/23/1 14/16/1 
f 14/16/1 13/20/1 9/22/1 
f 12/17/4 11/16/4 15/20/4 
f 15/20/4 14/19/4 12/17/4 
f 11/22/8 10/24/8 16/21/8 
f 16/21/8 15/20/8 11/22/8 
f 10/25/6 9/26/6 13/18/6 
f 13/18/6 16/21/6 10/25/6 
f 17/27/9 18/28/9 19/29/9 
f 19/29/9 20/30/9 17/27/9 
f 21/31/10 22/32/10 23/33/10 
f 23/33/10 24/34/10 21/31/10 
f 17/35/11 20/36/11 22/29/11 
f 22/29/11 21/33/11 17/35/11 
f 20/30/4 19/29/4 23/33/4 
f 23/33/4 22/32/4 20/30/4 
f 19/35/12 18/37/12 24/34/12 
f 24/34/12 23/33/12 19/35/12 
f 18/38/6 17/39/6 21/31/6 
f 21/31/6 24/34/6 18/38/6 
f 20/40/9 25/41/9 26/42/9 
f 26/42/9 27/43/9 20/40/9 
f 22/44/10 28/45/10 29/46/10 
f 29/46/10 30/47/10 22/44/10 
f 20/48/11 27/49/11 28/50/11 
f 28/50/11 22/46/11 20/48/11 
f 27/43/4 26/42/4 29/46/4 
f 29/46/4 28/45/4 27/43/4 
f 26/48/12 25/51/12 30/47/12 
f 30/47/12 29/46/12 26/48/12 
f 25/52/6 20/53/6 22/44/6 
f 22/44/6 30/47/6 25/52/6 
f 27/27/9 31/28/9 32/29/9 
f 32/29/9 33/30/9 27/27/9 
f 28/31/10 34/32/10 35/33/10 
f 35/33/10 36/34/10 28/31/10 
f 27/35/11 33/36/11 34/29/11 
f 34/29/11 28/33/11 27/35/11 
f 33/30/4 32/29/4 35/33/4 
f 35/33/4 34/32/4 33/30/4 
f 32/35/12 31/37/12 36/34/12 
f 36/34/12 35/33/12 32/35/12 
f 31/38/6 27/39/6 28/31/6 
f 28/31/6 36/34/6 31/38/6 
f 37/54/1 38/55/1 39/56/1 
f 39/56/1 40/57/1 37/54/1 
f 41/58/2 42/54/2 43/55/2 
f 43/55/2 44/59/2 41/58/2 
f 37/60/3 40/61/3 42/54/3 
f 42/54/3 41/58/3 37/60/3 
f 40/61/4 39/62/4 43/63/4 
f 43/63/4 42/54/4 40/61/4 
f 39/62/5 38/64/5 44/38/5 
f 44/38/5 43/63/5 39/62/5 
f 38/65/6 37/60/6 41/58/6 
f 41/58/6 44/66/6 38/65/6 
f 45/67/1 46/68/1 47/69/1 
f 47/69/1 48/70/1 45/67/1 
f 49/71/2 50/67/2 51/68/2 
f 51/68/2 52/72/2 49/71/2 
f 45/73/3 48/74/3 50/67/3 
f 50/67/3 49/71/3 45/73/3 
f 48/74/4 47/75/4 51/70/4 
f 51/70/4 50/67/4 48/74/4 
f 47/75/5 46/76/5 52/77/5 
f 52/77/5 51/70/5 47/75/5 
f 46/78/6 45/73/6 49/71/6 
f 49/71/6 52/79/6 46/78/6 
# 84 faces

