# 3ds Max Wavefront OBJ Exporter v0.97b - (c)2007 guruware
# File Created: 28.07.2021 20:22:54

mtllib minecraftVillagerLeftLeg.mtl

#
# object pierna_izquierda
#

v  0.0000 -10.1399 1.5679
v  0.0000 -10.1399 -2.4321
v  4.0000 -10.1399 -2.4321
v  4.0000 -10.1399 1.5679
v  0.0000 1.8601 1.5679
v  4.0000 1.8601 1.5679
v  4.0000 1.8601 -2.4321
v  0.0000 1.8601 -2.4321
# 8 vertices

vn 0.0000 -1.0000 -0.0000
vn 0.0000 1.0000 -0.0000
vn 0.0000 0.0000 1.0000
vn 1.0000 0.0000 -0.0000
vn 0.0000 0.0000 -1.0000
vn -1.0000 0.0000 -0.0000
# 6 vertex normals

vt 0.1250 0.5937 0.0000
vt 0.1250 0.6560 0.0000
vt 0.1875 0.6560 0.0000
vt 0.1875 0.5937 0.0000
vt 0.0625 0.5937 0.0000
vt 0.0625 0.6560 0.0000
vt 0.0625 0.4064 0.0000
vt 0.1250 0.4064 0.0000
vt 0.1875 0.4064 0.0000
vt 0.2500 0.4064 0.0000
vt 0.2500 0.5937 0.0000
vt 0.0000 0.4064 0.0000
vt 0.0000 0.5937 0.0000
# 13 texture coords

o pierna_izquierda
g pierna_izquierda
usemtl Material__25
s off
f 1/1/1 2/2/1 3/3/1 
f 3/3/1 4/4/1 1/1/1 
f 5/5/2 6/1/2 7/2/2 
f 7/2/2 8/6/2 5/5/2 
f 1/7/3 4/8/3 6/1/3 
f 6/1/3 5/5/3 1/7/3 
f 4/8/4 3/9/4 7/4/4 
f 7/4/4 6/1/4 4/8/4 
f 3/9/5 2/10/5 8/11/5 
f 8/11/5 7/4/5 3/9/5 
f 2/12/6 1/7/6 5/5/6 
f 5/5/6 8/13/6 2/12/6 
# 12 faces

