# 3ds Max Wavefront OBJ Exporter v0.97b - (c)2007 guruware
# File Created: 27.07.2021 15:16:46

mtllib barra_derecha_front.mtl

#
# object barra_derecha_front
#

v  -20.5170 -1.5778 0.3638
v  -20.5170 -1.5778 0.2148
v  -20.4329 -2.4357 0.2148
v  -20.4329 -2.4357 0.3638
v  -18.1019 -2.5465 0.0431
v  -18.8672 -2.6215 0.3638
v  -19.1140 -2.6458 0.0431
v  -18.7123 -1.0615 0.6925
v  -18.2519 -1.0163 0.0431
v  -19.0172 -1.0914 0.3638
v  -19.3702 -1.7473 -0.1076
v  -19.3417 -2.0380 -0.1076
v  -19.5792 -2.2081 -0.1076
v  -19.6362 -1.6267 -0.1076
v  -20.1261 -2.7450 0.0431
v  -20.1261 -2.7450 0.3638
v  -20.2762 -1.2148 0.3638
v  -20.2762 -1.2148 0.0431
v  -17.9684 -2.2100 0.6925
v  -18.5623 -2.5916 0.6925
v  -17.9684 -2.2100 0.2067
v  -18.0556 -1.3206 0.2067
v  -18.0556 -1.3206 0.6925
v  -18.7492 -1.1196 0.6925
v  -18.6098 -2.5418 0.6925
v  -18.0159 -2.1602 0.6925
v  -18.0925 -1.3786 0.6925
v  -19.2640 -1.1156 0.0431
v  -19.8452 -2.0874 -0.1076
v  -19.8737 -1.7967 -0.1076
v  -19.6649 -1.3336 0.0431
v  -20.1419 -1.6751 0.0431
v  -20.0847 -2.2589 0.0431
v  -19.5505 -2.5012 0.0431
v  -19.0735 -2.1597 0.0431
v  -19.1307 -1.5759 0.0431
v  -19.6649 -1.3336 0.1023
v  -20.1419 -1.6751 0.1023
v  -20.0847 -2.2589 0.1023
v  -19.5505 -2.5012 0.1023
v  -19.0735 -2.1597 0.1023
v  -19.1307 -1.5759 0.1023
v  -19.6601 -1.3833 0.1023
v  -20.0964 -1.6957 0.1023
v  -20.0441 -2.2298 0.1023
v  -19.5553 -2.4515 0.1023
v  -19.1190 -2.1391 0.1023
v  -19.1714 -1.6050 0.1023
v  -19.6601 -1.3833 -0.0268
v  -20.0964 -1.6957 -0.0268
v  -20.0441 -2.2298 -0.0268
v  -19.5553 -2.4515 -0.0268
v  -19.1190 -2.1391 -0.0268
v  -19.1714 -1.6050 -0.0268
v  -17.9381 -2.1911 0.2148
v  -17.9381 -2.1911 0.6496
v  -18.0222 -1.3332 0.6496
v  -18.0222 -1.3332 0.2148
v  -17.9434 -2.1371 0.6771
v  -18.0169 -1.3872 0.6771
v  -18.8832 -2.5562 0.3702
v  -19.0202 -1.1586 0.3702
v  -20.0957 -2.6709 0.3638
v  -20.2319 -1.2816 0.3638
v  -20.3686 -2.4294 0.3987
v  -20.4527 -1.5715 0.3987
v  -10.5082 -1.4626 0.2147
v  -10.5082 -1.4626 0.6496
v  -10.5135 -1.4086 0.6771
v  -10.5870 -0.6586 0.6771
v  -10.5923 -0.6047 0.6496
v  -10.5923 -0.6047 0.2147
v  0.9101 -0.3430 0.2147
v  0.8260 0.5149 0.2147
v  0.8260 0.5149 0.3638
v  0.9101 -0.3430 0.3638
v  -1.3549 -0.9045 0.0431
v  -0.3428 -0.8052 0.0431
v  -0.5897 -0.8294 0.3638
v  -1.0446 0.6708 0.6925
v  -0.7397 0.7007 0.3638
v  -1.5050 0.6257 0.0431
v  0.0285 -0.2855 -0.1076
v  -0.2375 -0.1649 -0.1076
v  -0.2660 0.1258 -0.1076
v  -0.0285 0.2959 -0.1076
v  0.6693 -0.7060 0.3638
v  0.6693 -0.7060 0.0431
v  0.5193 0.8242 0.0431
v  0.5193 0.8242 0.3638
v  -1.5513 -0.6003 0.6925
v  -1.5513 -0.6003 0.2067
v  -0.8946 -0.8593 0.6925
v  -1.6385 0.2892 0.2067
v  -1.6385 0.2892 0.6925
v  -1.5144 -0.5422 0.6925
v  -0.8577 -0.8012 0.6925
v  -0.9971 0.6210 0.6925
v  -1.5910 0.2394 0.6925
v  -0.4929 0.7249 0.0431
v  0.2660 -0.1155 -0.1076
v  0.2375 0.1752 -0.1076
v  -0.0572 0.5890 0.0431
v  0.4770 0.3466 0.0431
v  0.5342 -0.2372 0.0431
v  0.0572 -0.5786 0.0431
v  -0.4770 -0.3363 0.0431
v  -0.5342 0.2475 0.0431
v  0.4770 0.3466 0.1023
v  -0.0572 0.5890 0.1023
v  0.5342 -0.2372 0.1023
v  0.0572 -0.5786 0.1023
v  -0.4770 -0.3363 0.1023
v  -0.5342 0.2475 0.1023
v  0.4364 0.3176 0.1023
v  -0.0524 0.5393 0.1023
v  0.4887 -0.2165 0.1023
v  0.0524 -0.5289 0.1023
v  -0.4364 -0.3072 0.1023
v  -0.4887 0.2269 0.1023
v  0.4364 0.3176 -0.0268
v  -0.0524 0.5393 -0.0268
v  0.4887 -0.2165 -0.0268
v  0.0524 -0.5289 -0.0268
v  -0.4364 -0.3072 -0.0268
v  -0.4887 0.2269 -0.0268
v  -1.5847 -0.5876 0.6496
v  -1.5847 -0.5876 0.2147
v  -1.6688 0.2703 0.2147
v  -1.6688 0.2703 0.6496
v  -1.6635 0.2163 0.6771
v  -1.5900 -0.5337 0.6771
v  -0.5867 -0.7622 0.3702
v  -0.7237 0.6354 0.3702
v  0.6251 -0.6392 0.3638
v  0.4888 0.7501 0.3638
v  0.7617 0.5086 0.3987
v  0.8458 -0.3493 0.3987
# 138 vertices

vn -0.8633 0.2014 0.4628
vn -0.8984 0.1620 -0.4083
vn -0.8498 -0.3334 -0.4083
vn -0.8077 -0.3653 0.4628
vn 0.5131 -0.8487 0.1282
vn 0.0976 -0.9952 -0.0000
vn 0.0977 0.9856 0.1378
vn 0.3384 0.9322 0.1282
vn -0.0976 0.9952 -0.0000
vn 0.1703 0.1219 -0.9778
vn 0.1907 -0.0865 -0.9778
vn 0.0204 -0.2084 -0.9778
vn -0.0204 0.2084 -0.9778
vn -0.7528 -0.5300 -0.3903
vn -0.3894 -0.4355 0.8116
vn -0.4665 0.3516 0.8116
vn -0.8414 0.3737 -0.3903
vn 0.6360 -0.7551 0.1590
vn 0.2873 -0.9479 0.1378
vn 0.8068 -0.5908 -0.0000
vn 0.6992 0.0685 -0.7117
vn 0.6991 0.0686 -0.7117
vn 0.5755 0.0564 -0.8158
vn 0.5756 0.0564 -0.8158
vn 0.4772 0.8643 0.1590
vn 0.6767 0.7363 -0.0000
vn 0.0000 0.0000 1.0000
vn 0.0726 0.0316 0.9969
vn 0.0774 -0.0169 0.9969
vn -0.1703 -0.1219 -0.9778
vn -0.1907 0.0865 -0.9778
vn 0.0000 0.0000 -1.0000
vn 0.5821 -0.8131 -0.0000
vn 0.9952 0.0976 -0.0000
vn 0.4131 0.9107 -0.0000
vn -0.5821 0.8131 -0.0000
vn -0.9952 -0.0976 -0.0000
vn -0.4131 -0.9107 -0.0000
vn -0.2857 0.1296 -0.9495
vn -0.0306 0.3122 -0.9495
vn -0.2551 -0.1826 -0.9495
vn 0.0306 -0.3122 -0.9495
vn 0.2857 -0.1296 -0.9495
vn 0.2550 0.1826 -0.9495
vn 0.2999 0.0030 0.9540
vn 0.2948 0.0553 0.9540
vn 0.3363 -0.9417 -0.0000
vn 0.3152 -0.9033 0.2909
vn 0.1337 0.9474 0.2909
vn 0.1469 0.9891 -0.0000
vn 0.1376 0.0135 -0.9904
vn 0.2451 0.0068 0.9695
vn 0.2417 0.0409 0.9695
vn 0.8393 -0.1797 0.5131
vn 0.7884 0.3392 0.5132
vn -0.7245 -0.2720 0.6333
vn -0.5834 -0.5563 0.5917
vn -0.6884 -0.3446 0.6382
vn -0.7498 -0.1565 0.6429
vn -0.7636 0.1261 0.6333
vn -0.7659 0.0079 0.6429
vn -0.7423 0.2042 0.6382
vn -0.6804 0.4323 0.5918
vn 0.0037 -0.0922 0.9957
vn -0.0005 -0.0505 0.9987
vn 0.0436 -0.0109 0.9990
vn -0.0143 0.0911 0.9957
vn 0.0407 0.0192 0.9990
vn -0.0103 0.0494 0.9987
vn -0.2090 -0.1480 0.9667
vn -0.2338 0.1045 0.9667
vn 0.0832 -0.8483 0.5229
vn 0.0442 -0.4509 0.8915
vn 0.0442 -0.4508 0.8915
vn -0.0442 0.4509 0.8915
vn -0.0832 0.8483 0.5229
vn -0.0442 0.4508 0.8916
vn 0.8984 -0.1620 -0.4083
vn 0.8498 0.3334 -0.4083
vn 0.8077 0.3653 0.4629
vn 0.8632 -0.2014 0.4629
vn -0.3384 -0.9322 0.1282
vn -0.2873 0.9479 0.1378
vn -0.5131 0.8487 0.1282
vn 0.4666 -0.3516 0.8116
vn 0.8414 -0.3737 -0.3903
vn 0.7528 0.5300 -0.3903
vn 0.3894 0.4355 0.8116
vn -0.4773 -0.8642 0.1590
vn -0.6767 -0.7362 -0.0000
vn -0.0977 -0.9856 0.1378
vn -0.5755 -0.0564 -0.8158
vn -0.6991 -0.0686 -0.7117
vn -0.6992 -0.0686 -0.7117
vn -0.5756 -0.0564 -0.8158
vn -0.6360 0.7551 0.1590
vn -0.8068 0.5908 -0.0000
vn -0.0774 0.0169 0.9969
vn -0.0727 -0.0316 0.9969
vn 0.2551 0.1826 -0.9495
vn -0.2550 -0.1826 -0.9495
vn -0.2948 -0.0553 0.9540
vn -0.2999 -0.0030 0.9540
vn -0.1338 -0.9474 0.2909
vn -0.1470 -0.9891 -0.0000
vn -0.3363 0.9417 -0.0000
vn -0.3153 0.9033 0.2909
vn -0.1375 -0.0135 -0.9904
vn -0.1376 -0.0135 -0.9904
vn -0.2451 -0.0068 0.9695
vn -0.2418 -0.0409 0.9695
vn -0.7885 -0.3393 0.5130
vn -0.8393 0.1797 0.5131
vn 0.7636 -0.1261 0.6333
vn 0.7659 -0.0079 0.6429
vn 0.7423 -0.2042 0.6382
vn 0.6804 -0.4323 0.5918
vn 0.6885 0.3445 0.6382
vn 0.7498 0.1565 0.6429
vn 0.7246 0.2719 0.6333
vn 0.5834 0.5563 0.5918
vn -0.0407 -0.0192 0.9990
vn 0.0103 -0.0494 0.9987
vn 0.0143 -0.0911 0.9957
vn -0.0037 0.0921 0.9957
vn 0.0005 0.0505 0.9987
vn -0.0436 0.0109 0.9990
vn 0.2089 0.1479 0.9667
vn 0.2337 -0.1045 0.9667
# 129 vertex normals

vt 0.7809 0.2370 0.0000
vt 0.7817 0.2371 0.0000
vt 0.7817 0.2394 0.0000
vt 0.7809 0.2395 0.0000
vt 0.7884 0.2401 0.0000
vt 0.7866 0.2421 0.0000
vt 0.7857 0.2404 0.0000
vt 0.7876 0.2329 0.0000
vt 0.7883 0.2365 0.0000
vt 0.7865 0.2346 0.0000
vt 0.3367 0.6159 0.0000
vt 0.3369 0.6168 0.0000
vt 0.3361 0.6174 0.0000
vt 0.3358 0.6155 0.0000
vt 0.7828 0.2405 0.0000
vt 0.7810 0.2408 0.0000
vt 0.7812 0.2358 0.0000
vt 0.7829 0.2362 0.0000
vt 0.7898 0.2435 0.0000
vt 0.7878 0.2438 0.0000
vt 0.7896 0.2400 0.0000
vt 0.7895 0.2364 0.0000
vt 0.7898 0.2329 0.0000
vt 0.6960 0.2035 0.0000
vt 0.6960 0.1966 0.0000
vt 0.6991 0.1981 0.0000
vt 0.6991 0.2019 0.0000
vt 0.7829 0.2423 0.0000
vt 0.7830 0.2344 0.0000
vt 0.7857 0.2363 0.0000
vt 0.3352 0.6171 0.0000
vt 0.3350 0.6162 0.0000
vt 0.7846 0.2368 0.0000
vt 0.7831 0.2375 0.0000
vt 0.7830 0.2391 0.0000
vt 0.7845 0.2399 0.0000
vt 0.7860 0.2390 0.0000
vt 0.7860 0.2376 0.0000
vt 0.7846 0.2371 0.0000
vt 0.7833 0.2376 0.0000
vt 0.7832 0.2390 0.0000
vt 0.7845 0.2396 0.0000
vt 0.7857 0.2389 0.0000
vt 0.7858 0.2377 0.0000
vt 0.3354 0.6134 0.0000
vt 0.3329 0.6156 0.0000
vt 0.3326 0.6155 0.0000
vt 0.3353 0.6129 0.0000
vt 0.3334 0.6183 0.0000
vt 0.3331 0.6184 0.0000
vt 0.3365 0.6195 0.0000
vt 0.3366 0.6201 0.0000
vt 0.3390 0.6173 0.0000
vt 0.3393 0.6174 0.0000
vt 0.3385 0.6147 0.0000
vt 0.3388 0.6145 0.0000
vt 0.3356 0.6145 0.0000
vt 0.3340 0.6159 0.0000
vt 0.3343 0.6177 0.0000
vt 0.3363 0.6184 0.0000
vt 0.3379 0.6170 0.0000
vt 0.3376 0.6153 0.0000
vt 0.6961 0.1963 0.0000
vt 0.6992 0.1979 0.0000
vt 0.6962 0.2038 0.0000
vt 0.6993 0.2022 0.0000
vt 0.7898 0.2400 0.0000
vt 0.7899 0.2435 0.0000
vt 0.7897 0.2364 0.0000
vt 0.6994 0.1982 0.0000
vt 0.6994 0.2019 0.0000
vt 0.6994 0.1981 0.0000
vt 0.6995 0.2020 0.0000
vt 0.6926 0.1963 0.0000
vt 0.6926 0.1967 0.0000
vt 0.6927 0.2038 0.0000
vt 0.6927 0.2035 0.0000
vt 0.6867 0.1967 0.0000
vt 0.6865 0.1964 0.0000
vt 0.6866 0.2039 0.0000
vt 0.6868 0.2035 0.0000
vt 0.6850 0.1980 0.0000
vt 0.6855 0.1980 0.0000
vt 0.6855 0.2022 0.0000
vt 0.6851 0.2023 0.0000
vt 0.8228 0.2399 0.0000
vt 0.8228 0.2437 0.0000
vt 0.7369 0.1979 0.0000
vt 0.7369 0.2016 0.0000
vt 0.8228 0.2323 0.0000
vt 0.8228 0.2361 0.0000
vt 0.8711 0.2392 0.0000
vt 0.8712 0.2368 0.0000
vt 0.8720 0.2367 0.0000
vt 0.8719 0.2393 0.0000
vt 0.8643 0.2397 0.0000
vt 0.8670 0.2400 0.0000
vt 0.8661 0.2417 0.0000
vt 0.8651 0.2324 0.0000
vt 0.8663 0.2341 0.0000
vt 0.8644 0.2361 0.0000
vt 0.8978 0.8504 0.0000
vt 0.8975 0.8513 0.0000
vt 0.8966 0.8515 0.0000
vt 0.8960 0.8507 0.0000
vt 0.8716 0.2405 0.0000
vt 0.8699 0.2401 0.0000
vt 0.8700 0.2357 0.0000
vt 0.8718 0.2355 0.0000
vt 0.8629 0.2431 0.0000
vt 0.8632 0.2396 0.0000
vt 0.8649 0.2434 0.0000
vt 0.8632 0.2360 0.0000
vt 0.8628 0.2325 0.0000
vt 0.7823 0.1975 0.0000
vt 0.7854 0.1959 0.0000
vt 0.7854 0.2029 0.0000
vt 0.7824 0.2013 0.0000
vt 0.8698 0.2419 0.0000
vt 0.8699 0.2339 0.0000
vt 0.8671 0.2359 0.0000
vt 0.8972 0.8496 0.0000
vt 0.8963 0.8497 0.0000
vt 0.8682 0.2364 0.0000
vt 0.8698 0.2371 0.0000
vt 0.8697 0.2387 0.0000
vt 0.8682 0.2395 0.0000
vt 0.8668 0.2387 0.0000
vt 0.8668 0.2372 0.0000
vt 0.8696 0.2372 0.0000
vt 0.8682 0.2367 0.0000
vt 0.8694 0.2386 0.0000
vt 0.8682 0.2392 0.0000
vt 0.8670 0.2386 0.0000
vt 0.8670 0.2374 0.0000
vt 0.8949 0.8477 0.0000
vt 0.8951 0.8480 0.0000
vt 0.8939 0.8510 0.0000
vt 0.8933 0.8512 0.0000
vt 0.8978 0.8472 0.0000
vt 0.8978 0.8475 0.0000
vt 0.9005 0.8499 0.0000
vt 0.8999 0.8500 0.0000
vt 0.8989 0.8533 0.0000
vt 0.8987 0.8531 0.0000
vt 0.8960 0.8538 0.0000
vt 0.8961 0.8535 0.0000
vt 0.8957 0.8488 0.0000
vt 0.8950 0.8509 0.0000
vt 0.8975 0.8485 0.0000
vt 0.8989 0.8502 0.0000
vt 0.8981 0.8522 0.0000
vt 0.8963 0.8525 0.0000
vt 0.7822 0.1972 0.0000
vt 0.7852 0.1956 0.0000
vt 0.7853 0.2031 0.0000
vt 0.7822 0.2015 0.0000
vt 0.8630 0.2396 0.0000
vt 0.8630 0.2360 0.0000
vt 0.7820 0.2013 0.0000
vt 0.7820 0.1975 0.0000
vt 0.7819 0.1974 0.0000
vt 0.7820 0.2014 0.0000
vt 0.7887 0.1956 0.0000
vt 0.7888 0.1959 0.0000
vt 0.7888 0.2028 0.0000
vt 0.7888 0.2031 0.0000
vt 0.7947 0.1959 0.0000
vt 0.7949 0.1956 0.0000
vt 0.7947 0.2027 0.0000
vt 0.7949 0.2031 0.0000
vt 0.7959 0.2014 0.0000
vt 0.7959 0.1973 0.0000
vt 0.7964 0.1972 0.0000
vt 0.7964 0.2015 0.0000
# 175 texture coords

o barra_derecha_front
g barra_derecha_front
usemtl Material__25
s 1
f 1/1/1 2/2/2 3/3/3 
f 3/3/3 4/4/4 1/1/1 
s 2
f 5/5/5 6/6/6 7/7/6 
f 8/8/7 9/9/8 10/10/9 
s 1
f 11/11/10 12/12/11 13/13/12 
f 13/13/12 14/14/13 11/11/10 
f 3/3/3 15/15/14 16/16/15 
f 16/16/15 4/4/4 3/3/3 
f 17/17/16 18/18/17 2/2/2 
f 2/2/2 1/1/1 17/17/16 
f 18/18/17 15/15/14 3/3/3 
f 3/3/3 2/2/2 18/18/17 
s 2
f 19/19/18 20/20/19 5/5/5 
f 5/5/5 21/21/20 19/19/18 
s 1
f 5/5/21 9/9/22 22/22/23 
f 22/22/23 21/21/24 5/5/21 
s 2
f 9/9/8 8/8/7 23/23/25 
f 23/23/25 22/22/26 9/9/8 
s 1
f 24/24/27 25/25/27 26/26/28 
f 26/26/28 27/27/29 24/24/27 
s 2
f 7/7/6 6/6/6 16/28/6 
f 16/28/6 15/15/6 7/7/6 
f 17/29/9 10/10/9 28/30/9 
f 28/30/9 18/18/9 17/29/9 
s 1
f 14/14/13 13/13/12 29/31/30 
f 29/31/30 30/32/31 14/14/13 
s 4
f 18/18/32 28/30/32 31/33/32 
f 31/33/32 32/34/32 18/18/32 
f 18/18/32 32/34/32 33/35/32 
f 33/35/32 15/15/32 18/18/32 
f 34/36/32 7/7/32 15/15/32 
f 15/15/32 33/35/32 34/36/32 
f 7/7/32 34/36/32 35/37/32 
f 35/37/32 5/5/32 7/7/32 
f 35/37/32 36/38/32 9/9/32 
f 9/9/32 5/5/32 35/37/32 
f 36/38/32 31/33/32 28/30/32 
f 28/30/32 9/9/32 36/38/32 
s 1
f 37/39/33 38/40/33 32/34/33 
f 32/34/33 31/33/33 37/39/33 
s 2
f 38/40/34 39/41/34 33/35/34 
f 33/35/34 32/34/34 38/40/34 
s 1
f 39/41/35 40/42/35 34/36/35 
f 34/36/35 33/35/35 39/41/35 
s 2
f 40/42/36 41/43/36 35/37/36 
f 35/37/36 34/36/36 40/42/36 
s 1
f 41/43/37 42/44/37 36/38/37 
f 36/38/37 35/37/37 41/43/37 
s 2
f 42/44/38 37/39/38 31/33/38 
f 31/33/38 36/38/38 42/44/38 
s 4
f 43/45/32 44/46/32 38/47/32 
f 38/47/32 37/48/32 43/45/32 
f 44/46/32 45/49/32 39/50/32 
f 39/50/32 38/47/32 44/46/32 
f 45/49/32 46/51/32 40/52/32 
f 40/52/32 39/50/32 45/49/32 
f 46/51/32 47/53/32 41/54/32 
f 41/54/32 40/52/32 46/51/32 
f 47/53/32 48/55/32 42/56/32 
f 42/56/32 41/54/32 47/53/32 
f 48/55/32 43/45/32 37/48/32 
f 37/48/32 42/56/32 48/55/32 
s 2
f 49/57/36 50/58/36 44/46/36 
f 44/46/36 43/45/36 49/57/36 
s 8
f 50/58/37 51/59/37 45/49/37 
f 45/49/37 44/46/37 50/58/37 
s 2
f 51/59/38 52/60/38 46/51/38 
f 46/51/38 45/49/38 51/59/38 
s 8
f 52/60/33 53/61/33 47/53/33 
f 47/53/33 46/51/33 52/60/33 
s 2
f 53/61/34 54/62/34 48/55/34 
f 48/55/34 47/53/34 53/61/34 
s 8
f 54/62/35 49/57/35 43/45/35 
f 43/45/35 48/55/35 54/62/35 
s 1
f 14/14/13 30/32/31 50/58/39 
f 50/58/39 49/57/40 14/14/13 
f 30/32/31 29/31/30 51/59/41 
f 51/59/41 50/58/39 30/32/31 
f 29/31/30 13/13/12 52/60/42 
f 52/60/42 51/59/41 29/31/30 
f 13/13/12 12/12/11 53/61/43 
f 53/61/43 52/60/42 13/13/12 
f 12/12/11 11/11/10 54/62/44 
f 54/62/44 53/61/43 12/12/11 
f 11/11/10 14/14/13 49/57/40 
f 49/57/40 54/62/44 11/11/10 
f 26/26/28 25/25/27 20/63/27 
f 20/63/27 19/64/45 26/26/28 
f 8/65/27 24/24/27 27/27/29 
f 27/27/29 23/66/46 8/65/27 
s 2
f 21/21/20 55/67/47 56/68/48 
f 56/68/48 19/19/18 21/21/20 
f 22/22/26 23/23/25 57/23/49 
f 57/23/49 58/69/50 22/22/26 
s 1
f 22/22/23 58/69/51 55/67/51 
f 55/67/51 21/21/24 22/22/23 
f 26/26/28 59/70/52 60/71/53 
f 60/71/53 27/27/29 26/26/28 
f 19/64/45 56/72/54 59/70/52 
f 59/70/52 26/26/28 19/64/45 
f 23/66/46 27/27/29 60/71/53 
f 60/71/53 57/73/55 23/66/46 
s 4
f 6/74/56 20/63/57 25/25/58 
f 25/25/58 61/75/59 6/74/56 
f 10/76/60 62/77/61 24/24/62 
f 24/24/62 8/65/63 10/76/60 
f 61/75/59 25/25/58 24/24/62 
f 24/24/62 62/77/61 61/75/59 
s 1
f 6/74/64 61/75/65 63/78/66 
f 63/78/66 16/79/15 6/74/64 
f 10/76/67 17/80/16 64/81/68 
f 64/81/68 62/77/69 10/76/67 
f 63/78/66 61/75/65 62/77/69 
f 62/77/69 64/81/68 63/78/66 
f 4/82/4 65/83/70 66/84/71 
f 66/84/71 1/85/1 4/82/4 
f 63/78/66 64/81/68 66/84/71 
f 66/84/71 65/83/70 63/78/66 
f 16/79/15 63/78/66 65/83/70 
f 65/83/70 4/82/4 16/79/15 
f 66/84/71 64/81/68 17/80/16 
f 17/80/16 1/85/1 66/84/71 
s 2
f 9/9/8 28/30/9 10/10/9 
f 5/5/5 20/20/19 6/6/6 
f 67/86/6 68/87/72 56/68/48 
f 56/68/48 55/67/47 67/86/6 
f 68/88/72 69/88/73 59/70/74 
f 59/70/74 56/72/48 68/88/72 
s 1
f 69/88/27 70/89/27 60/71/53 
f 60/71/53 59/70/52 69/88/27 
s 2
f 70/89/75 71/89/76 57/73/49 
f 57/73/49 60/71/77 70/89/75 
f 71/90/76 72/91/9 58/69/50 
f 58/69/50 57/23/49 71/90/76 
s 1
f 58/69/51 72/91/32 67/86/32 
f 67/86/32 55/67/51 58/69/51 
f 73/92/78 74/93/79 75/94/80 
f 75/94/80 76/95/81 73/92/78 
s 2
f 77/96/82 78/97/6 79/98/6 
f 80/99/83 81/100/9 82/101/84 
s 1
f 83/102/12 84/103/30 85/104/31 
f 85/104/31 86/105/13 83/102/12 
f 73/92/78 76/95/81 87/106/85 
f 87/106/85 88/107/86 73/92/78 
f 74/93/79 89/108/87 90/109/88 
f 90/109/88 75/94/80 74/93/79 
f 73/92/78 88/107/86 89/108/87 
f 89/108/87 74/93/79 73/92/78 
s 2
f 91/110/89 92/111/90 77/96/82 
f 77/96/82 93/112/91 91/110/89 
s 1
f 94/113/92 82/101/93 77/96/94 
f 77/96/94 92/111/95 94/113/92 
s 2
f 95/114/96 80/99/83 82/101/84 
f 82/101/84 94/113/97 95/114/96 
s 1
f 96/115/98 97/116/27 98/117/27 
f 98/117/27 99/118/99 96/115/98 
s 2
f 87/119/6 79/98/6 78/97/6 
f 78/97/6 88/107/6 87/119/6 
f 90/120/9 89/108/9 100/121/9 
f 100/121/9 81/100/9 90/120/9 
s 1
f 101/122/11 83/102/12 86/105/13 
f 86/105/13 102/123/10 101/122/11 
s 4
f 103/124/32 100/121/32 89/108/32 
f 89/108/32 104/125/32 103/124/32 
f 89/108/32 88/107/32 105/126/32 
f 105/126/32 104/125/32 89/108/32 
f 106/127/32 105/126/32 88/107/32 
f 88/107/32 78/97/32 106/127/32 
f 78/97/32 77/96/32 107/128/32 
f 107/128/32 106/127/32 78/97/32 
f 82/101/32 108/129/32 107/128/32 
f 107/128/32 77/96/32 82/101/32 
f 100/121/32 103/124/32 108/129/32 
f 108/129/32 82/101/32 100/121/32 
s 1
f 104/125/38 109/130/38 110/131/38 
f 110/131/38 103/124/38 104/125/38 
s 2
f 105/126/37 111/132/37 109/130/37 
f 109/130/37 104/125/37 105/126/37 
s 1
f 106/127/36 112/133/36 111/132/36 
f 111/132/36 105/126/36 106/127/36 
s 2
f 107/128/35 113/134/35 112/133/35 
f 112/133/35 106/127/35 107/128/35 
s 1
f 108/129/34 114/135/34 113/134/34 
f 113/134/34 107/128/34 108/129/34 
s 2
f 103/124/33 110/131/33 114/135/33 
f 114/135/33 108/129/33 103/124/33 
s 4
f 109/136/32 115/137/32 116/138/32 
f 116/138/32 110/139/32 109/136/32 
f 111/140/32 117/141/32 115/137/32 
f 115/137/32 109/136/32 111/140/32 
f 112/142/32 118/143/32 117/141/32 
f 117/141/32 111/140/32 112/142/32 
f 113/144/32 119/145/32 118/143/32 
f 118/143/32 112/142/32 113/144/32 
f 114/146/32 120/147/32 119/145/32 
f 119/145/32 113/144/32 114/146/32 
f 110/139/32 116/138/32 120/147/32 
f 120/147/32 114/146/32 110/139/32 
s 2
f 115/137/35 121/148/35 122/149/35 
f 122/149/35 116/138/35 115/137/35 
s 8
f 117/141/34 123/150/34 121/148/34 
f 121/148/34 115/137/34 117/141/34 
s 2
f 118/143/33 124/151/33 123/150/33 
f 123/150/33 117/141/33 118/143/33 
s 8
f 119/145/38 125/152/38 124/151/38 
f 124/151/38 118/143/38 119/145/38 
s 2
f 120/147/37 126/153/37 125/152/37 
f 125/152/37 119/145/37 120/147/37 
s 8
f 116/138/36 122/149/36 126/153/36 
f 126/153/36 120/147/36 116/138/36 
s 1
f 121/148/100 102/123/10 86/105/13 
f 86/105/13 122/149/40 121/148/100 
f 123/150/43 101/122/11 102/123/10 
f 102/123/10 121/148/100 123/150/43 
f 124/151/42 83/102/12 101/122/11 
f 101/122/11 123/150/43 124/151/42 
f 125/152/101 84/103/30 83/102/12 
f 83/102/12 124/151/42 125/152/101 
f 126/153/39 85/104/31 84/103/30 
f 84/103/30 125/152/101 126/153/39 
f 122/149/40 86/105/13 85/104/31 
f 85/104/31 126/153/39 122/149/40 
f 96/115/98 91/154/102 93/155/27 
f 93/155/27 97/116/27 96/115/98 
f 99/118/99 98/117/27 80/156/27 
f 80/156/27 95/157/103 99/118/99 
s 2
f 127/110/104 128/158/105 92/111/90 
f 92/111/90 91/110/89 127/110/104 
f 94/113/97 129/159/106 130/114/107 
f 130/114/107 95/114/96 94/113/97 
s 1
f 128/158/108 129/159/109 94/113/92 
f 94/113/92 92/111/95 128/158/108 
f 131/160/110 132/161/111 96/115/98 
f 96/115/98 99/118/99 131/160/110 
f 132/161/111 127/162/112 91/154/102 
f 91/154/102 96/115/98 132/161/111 
f 95/157/103 130/163/113 131/160/110 
f 131/160/110 99/118/99 95/157/103 
s 4
f 79/164/114 133/165/115 97/116/116 
f 97/116/116 93/155/117 79/164/114 
f 98/117/118 134/166/119 81/167/120 
f 81/167/120 80/156/121 98/117/118 
f 98/117/118 97/116/116 133/165/115 
f 133/165/115 134/166/119 98/117/118 
s 1
f 135/168/122 133/165/123 79/164/124 
f 79/164/124 87/169/85 135/168/122 
f 81/167/125 134/166/126 136/170/127 
f 136/170/127 90/171/88 81/167/125 
f 134/166/126 133/165/123 135/168/122 
f 135/168/122 136/170/127 134/166/126 
f 137/172/128 138/173/129 76/174/81 
f 76/174/81 75/175/80 137/172/128 
f 137/172/128 136/170/127 135/168/122 
f 135/168/122 138/173/129 137/172/128 
f 87/169/85 76/174/81 138/173/129 
f 138/173/129 135/168/122 87/169/85 
f 137/172/128 75/175/80 90/171/88 
f 90/171/88 136/170/127 137/172/128 
s 2
f 82/101/84 81/100/9 100/121/9 
f 77/96/82 79/98/6 93/112/91 
f 127/110/104 68/87/72 67/86/6 
f 67/86/6 128/158/105 127/110/104 
f 132/161/73 69/88/73 68/88/72 
f 68/88/72 127/162/104 132/161/73 
s 1
f 131/160/110 70/89/27 69/88/27 
f 69/88/27 132/161/111 131/160/110 
s 2
f 130/163/107 71/89/76 70/89/75 
f 70/89/75 131/160/75 130/163/107 
f 129/159/106 72/91/9 71/90/76 
f 71/90/76 130/114/107 129/159/106 
s 1
f 67/86/32 72/91/32 129/159/109 
f 129/159/109 128/158/108 67/86/32 
# 272 faces

