# 3ds Max Wavefront OBJ Exporter v0.97b - (c)2007 guruware
# File Created: 27.07.2021 15:21:13

mtllib barra_izquierda_back.mtl

#
# object barra_izquierda_back
#

v  1.2152 -0.4572 -0.2263
v  1.2152 0.4048 -0.2263
v  21.2970 0.4048 -0.2263
v  21.2970 -0.4572 -0.2263
v  -1.2915 0.4048 0.2085
v  -1.2915 0.4048 -0.2263
v  -1.2915 -0.4572 -0.2263
v  -1.2915 -0.4572 0.2085
v  1.0175 -0.7950 -0.3979
v  1.0175 -0.7950 0.3801
v  0.0006 -0.7950 0.3801
v  0.0006 -0.7950 -0.3979
v  1.0175 0.7425 0.3801
v  1.0175 0.7425 -0.3979
v  0.0006 0.7425 -0.3979
v  0.0006 0.7425 0.3801
v  0.2484 0.1241 -0.5487
v  0.2484 -0.1680 -0.5487
v  -0.0045 -0.3140 -0.5487
v  -0.0045 0.2702 -0.5487
v  -1.0164 -0.7950 -0.3979
v  -1.0164 -0.7950 0.3801
v  -1.0164 -0.7408 0.4077
v  -1.0164 0.6883 0.4077
v  -1.2573 0.3782 0.2574
v  -1.2573 -0.4307 0.2574
v  -1.0164 0.7425 0.3801
v  -1.0164 0.7425 -0.3979
v  1.1832 -0.4731 -0.2344
v  1.1832 -0.4731 0.2166
v  1.1832 0.4206 -0.2344
v  1.1832 0.4206 0.2166
v  1.0175 0.6883 0.4077
v  1.0175 -0.7408 0.4077
v  1.1832 -0.4189 0.2441
v  1.1832 0.3664 0.2441
v  -0.2575 -0.1680 -0.5487
v  -0.2575 0.1241 -0.5487
v  0.0006 -0.7408 0.4077
v  0.0006 0.6883 0.4077
v  -0.0045 0.5647 -0.3979
v  -0.5125 0.2714 -0.3979
v  -0.5125 -0.3152 -0.3979
v  -0.0045 -0.6085 -0.3979
v  0.5035 -0.3152 -0.3979
v  0.5035 0.2714 -0.3979
v  -0.0045 0.5647 -0.3387
v  -0.5125 0.2714 -0.3387
v  -0.5125 -0.3152 -0.3387
v  -0.0045 -0.6085 -0.3387
v  0.5035 -0.3152 -0.3387
v  0.5035 0.2714 -0.3387
v  -0.0045 0.5148 -0.3387
v  -0.4693 0.2464 -0.3387
v  -0.4693 -0.2902 -0.3387
v  -0.0045 -0.5586 -0.3387
v  0.4602 -0.2902 -0.3387
v  0.4602 0.2464 -0.3387
v  -0.0045 0.5148 -0.4679
v  -0.4693 0.2464 -0.4679
v  -0.4693 -0.2902 -0.4679
v  -0.0045 -0.5586 -0.4679
v  0.4602 -0.2902 -0.4679
v  0.4602 0.2464 -0.4679
v  1.2152 -0.4572 0.2085
v  1.2152 0.4048 0.2085
v  1.2152 -0.4030 0.2361
v  1.2152 0.3506 0.2361
v  23.8037 -0.4572 -0.2263
v  23.8037 0.4048 -0.2263
v  23.8037 0.4048 -0.0772
v  23.8037 -0.4572 -0.0772
v  21.4947 -0.7950 -0.3979
v  22.5117 -0.7950 -0.3979
v  22.2636 -0.7950 -0.0772
v  21.9573 0.7425 0.2515
v  22.2636 0.7425 -0.0772
v  21.4947 0.7425 -0.3979
v  22.9319 -0.3140 -0.5487
v  22.6790 -0.1680 -0.5487
v  22.6790 0.1241 -0.5487
v  22.9319 0.2702 -0.5487
v  23.5286 -0.7950 -0.0772
v  23.5286 -0.7950 -0.3979
v  23.5286 0.7425 -0.3979
v  23.5286 0.7425 -0.0772
v  21.3290 -0.4731 0.2515
v  21.3290 -0.4731 -0.2344
v  21.9573 -0.7950 0.2515
v  21.3290 0.4206 -0.2344
v  21.3290 0.4206 0.2515
v  21.3714 -0.4189 0.2515
v  21.9997 -0.7408 0.2515
v  21.9997 0.6883 0.2515
v  21.3714 0.3664 0.2515
v  22.5117 0.7425 -0.3979
v  23.1849 -0.1680 -0.5487
v  23.1849 0.1241 -0.5487
v  22.9319 0.5647 -0.3979
v  23.4399 0.2714 -0.3979
v  23.4399 -0.3152 -0.3979
v  22.9319 -0.6085 -0.3979
v  22.4239 -0.3152 -0.3979
v  22.4239 0.2714 -0.3979
v  23.4399 0.2714 -0.3387
v  22.9319 0.5647 -0.3387
v  23.4399 -0.3152 -0.3387
v  22.9319 -0.6085 -0.3387
v  22.4239 -0.3152 -0.3387
v  22.4239 0.2714 -0.3387
v  23.3967 0.2464 -0.3387
v  22.9319 0.5148 -0.3387
v  23.3967 -0.2902 -0.3387
v  22.9319 -0.5586 -0.3387
v  22.4672 -0.2902 -0.3387
v  22.4672 0.2464 -0.3387
v  23.3967 0.2464 -0.4679
v  22.9319 0.5148 -0.4679
v  23.3967 -0.2902 -0.4679
v  22.9319 -0.5586 -0.4679
v  22.4672 -0.2902 -0.4679
v  22.4672 0.2464 -0.4679
v  21.2970 -0.4572 0.2085
v  21.2970 0.4048 0.2085
v  21.2970 0.3506 0.2361
v  21.2970 -0.4030 0.2361
v  22.2732 -0.7284 -0.0709
v  22.2732 0.6760 -0.0709
v  23.4911 -0.7242 -0.0772
v  23.4911 0.6717 -0.0772
v  23.7391 0.4048 -0.0424
v  23.7391 -0.4572 -0.0424
# 132 vertices

vn 0.2618 -0.6458 -0.7172
vn 0.2618 0.6458 -0.7172
vn -0.2618 0.6458 -0.7172
vn -0.2618 -0.6458 -0.7172
vn -0.9176 0.2883 0.2737
vn -0.8783 0.2489 -0.4083
vn -0.8783 -0.2489 -0.4083
vn -0.9176 -0.2883 0.2737
vn 0.0000 -1.0000 -0.0000
vn 0.0000 -0.8523 0.5230
vn 0.0000 0.8523 0.5230
vn 0.0000 1.0000 -0.0000
vn 0.1813 0.1047 -0.9778
vn 0.1813 -0.1047 -0.9778
vn 0.0000 -0.2094 -0.9778
vn 0.0000 0.2094 -0.9778
vn -0.8009 -0.4541 -0.3903
vn -0.8086 -0.5063 0.2999
vn -0.7000 -0.2253 0.6776
vn -0.7000 0.2253 0.6776
vn -0.6944 0.0757 0.7155
vn -0.6944 -0.0757 0.7155
vn -0.8086 0.5063 0.2999
vn -0.8009 0.4541 -0.3903
vn 0.9086 -0.3597 0.2124
vn 0.9044 -0.3252 -0.2762
vn 0.7769 -0.3735 -0.5068
vn 0.7888 -0.5192 0.3289
vn 0.9044 0.3252 -0.2762
vn 0.7769 0.3735 -0.5068
vn 0.9086 0.3597 0.2124
vn 0.7888 0.5192 0.3289
vn 0.8429 0.1754 0.5087
vn 0.8429 -0.1754 0.5087
vn 0.5973 -0.1615 0.7856
vn 0.5973 0.1615 0.7856
vn -0.1813 -0.1047 -0.9778
vn -0.1813 0.1047 -0.9778
vn 0.0000 0.0000 1.0000
vn 0.0000 0.0000 -1.0000
vn 0.5000 -0.8660 -0.0000
vn 1.0000 0.0000 -0.0000
vn 0.5000 0.8660 -0.0000
vn -0.5000 0.8660 -0.0000
vn -1.0000 0.0000 -0.0000
vn -0.5000 -0.8660 -0.0000
vn -0.2717 0.1568 -0.9495
vn 0.0000 0.3137 -0.9495
vn -0.2717 -0.1568 -0.9495
vn 0.0000 -0.3137 -0.9495
vn 0.2717 -0.1568 -0.9495
vn 0.2717 0.1568 -0.9495
vn 0.0000 -0.4530 0.8915
vn 0.0000 0.4530 0.8915
vn 0.2726 -0.8156 0.5103
vn 0.2726 0.8156 0.5103
vn 0.1644 -0.2007 0.9658
vn 0.1644 0.2007 0.9658
vn 0.8783 -0.2489 -0.4083
vn 0.8783 0.2489 -0.4083
vn 0.8395 0.2847 0.4628
vn 0.8395 -0.2847 0.4628
vn -0.5685 -0.8204 -0.0610
vn -0.1444 0.7252 0.6732
vn -0.5685 0.8204 -0.0610
vn 0.4300 -0.3954 0.8116
vn 0.8009 -0.4541 -0.3903
vn 0.8009 0.4541 -0.3903
vn 0.4300 0.3955 0.8116
vn -0.4979 -0.4394 0.7477
vn -0.7769 -0.3735 -0.5068
vn -0.1444 -0.7252 0.6732
vn -0.7769 0.3735 -0.5068
vn -0.4979 0.4393 0.7477
vn -0.0754 0.0244 0.9969
vn -0.0754 -0.0244 0.9969
vn -0.2716 -0.1568 -0.9495
vn -0.2716 0.1568 -0.9495
vn -0.3959 -0.8393 0.3725
vn -0.3959 0.8393 0.3725
vn -0.1883 0.1286 0.9736
vn -0.1884 -0.1286 0.9736
vn 0.7476 -0.1999 0.6333
vn 0.7615 -0.0826 0.6429
vn 0.7188 -0.2757 0.6382
vn 0.6349 -0.4966 0.5918
vn 0.7188 0.2757 0.6382
vn 0.7615 0.0826 0.6429
vn 0.7476 0.2000 0.6333
vn 0.6349 0.4967 0.5918
vn -0.0424 -0.0151 0.9990
vn 0.0054 -0.0502 0.9987
vn 0.0053 -0.0921 0.9957
vn 0.0053 0.0921 0.9957
vn 0.0054 0.0502 0.9987
vn -0.0424 0.0151 0.9990
vn 0.2224 0.1269 0.9667
vn 0.2224 -0.1269 0.9667
# 98 vertex normals

vt 0.5579 0.3526 0.0000
vt 0.5579 0.3562 0.0000
vt 0.6492 0.3564 0.0000
vt 0.6491 0.3528 0.0000
vt 0.5477 0.3560 0.0000
vt 0.5500 0.3558 0.0000
vt 0.5499 0.3536 0.0000
vt 0.5476 0.3536 0.0000
vt 0.5565 0.3525 0.0000
vt 0.5567 0.3482 0.0000
vt 0.5537 0.3481 0.0000
vt 0.5537 0.3525 0.0000
vt 0.5571 0.3604 0.0000
vt 0.5566 0.3563 0.0000
vt 0.5539 0.3565 0.0000
vt 0.5543 0.3607 0.0000
vt 0.6755 0.5711 0.0000
vt 0.6765 0.5712 0.0000
vt 0.6770 0.5704 0.0000
vt 0.6750 0.5703 0.0000
vt 0.5509 0.3525 0.0000
vt 0.5467 0.3524 0.0000
vt 0.4690 0.0816 0.0000
vt 0.4690 0.0883 0.0000
vt 0.4708 0.0869 0.0000
vt 0.4708 0.0831 0.0000
vt 0.5470 0.3573 0.0000
vt 0.5511 0.3567 0.0000
vt 0.5577 0.3526 0.0000
vt 0.5579 0.3492 0.0000
vt 0.5577 0.3562 0.0000
vt 0.5580 0.3595 0.0000
vt 0.4595 0.0884 0.0000
vt 0.4595 0.0816 0.0000
vt 0.4578 0.0831 0.0000
vt 0.4578 0.0869 0.0000
vt 0.5508 0.3481 0.0000
vt 0.5515 0.3610 0.0000
vt 0.6765 0.5695 0.0000
vt 0.6755 0.5695 0.0000
vt 0.4642 0.0816 0.0000
vt 0.4642 0.0884 0.0000
vt 0.5539 0.3560 0.0000
vt 0.5524 0.3554 0.0000
vt 0.5523 0.3538 0.0000
vt 0.5537 0.3530 0.0000
vt 0.5551 0.3538 0.0000
vt 0.5552 0.3552 0.0000
vt 0.5538 0.3558 0.0000
vt 0.5526 0.3552 0.0000
vt 0.5525 0.3539 0.0000
vt 0.5537 0.3532 0.0000
vt 0.5549 0.3539 0.0000
vt 0.5550 0.3550 0.0000
vt 0.6726 0.5703 0.0000
vt 0.6745 0.5678 0.0000
vt 0.6744 0.5675 0.0000
vt 0.6720 0.5703 0.0000
vt 0.6775 0.5678 0.0000
vt 0.6776 0.5675 0.0000
vt 0.6794 0.5703 0.0000
vt 0.6800 0.5703 0.0000
vt 0.6775 0.5729 0.0000
vt 0.6776 0.5732 0.0000
vt 0.6745 0.5729 0.0000
vt 0.6744 0.5732 0.0000
vt 0.6738 0.5703 0.0000
vt 0.6750 0.5687 0.0000
vt 0.6770 0.5687 0.0000
vt 0.6782 0.5703 0.0000
vt 0.6770 0.5720 0.0000
vt 0.6750 0.5720 0.0000
vt 0.4642 0.0813 0.0000
vt 0.4691 0.0813 0.0000
vt 0.4713 0.0870 0.0000
vt 0.4713 0.0829 0.0000
vt 0.4642 0.0887 0.0000
vt 0.4594 0.0887 0.0000
vt 0.4691 0.0887 0.0000
vt 0.4593 0.0813 0.0000
vt 0.4576 0.0829 0.0000
vt 0.4576 0.0871 0.0000
vt 0.5580 0.3490 0.0000
vt 0.5581 0.3598 0.0000
vt 0.4576 0.0831 0.0000
vt 0.4576 0.0869 0.0000
vt 0.4575 0.0830 0.0000
vt 0.4575 0.0870 0.0000
vt 0.6567 0.3532 0.0000
vt 0.6568 0.3553 0.0000
vt 0.6575 0.3554 0.0000
vt 0.6574 0.3531 0.0000
vt 0.6504 0.3527 0.0000
vt 0.6529 0.3524 0.0000
vt 0.6521 0.3508 0.0000
vt 0.6515 0.3599 0.0000
vt 0.6525 0.3580 0.0000
vt 0.6505 0.3563 0.0000
vt 0.5977 0.4981 0.0000
vt 0.5972 0.4973 0.0000
vt 0.5962 0.4973 0.0000
vt 0.5956 0.4981 0.0000
vt 0.6572 0.3519 0.0000
vt 0.6556 0.3523 0.0000
vt 0.6557 0.3563 0.0000
vt 0.6574 0.3565 0.0000
vt 0.6490 0.3493 0.0000
vt 0.6493 0.3528 0.0000
vt 0.6510 0.3491 0.0000
vt 0.6494 0.3564 0.0000
vt 0.6492 0.3600 0.0000
vt 0.3558 0.0832 0.0000
vt 0.3527 0.0816 0.0000
vt 0.3527 0.0886 0.0000
vt 0.3558 0.0871 0.0000
vt 0.6555 0.3506 0.0000
vt 0.6558 0.3579 0.0000
vt 0.6531 0.3563 0.0000
vt 0.5972 0.4989 0.0000
vt 0.5962 0.4989 0.0000
vt 0.6541 0.3558 0.0000
vt 0.6554 0.3551 0.0000
vt 0.6554 0.3536 0.0000
vt 0.6540 0.3529 0.0000
vt 0.6528 0.3537 0.0000
vt 0.6528 0.3551 0.0000
vt 0.6552 0.3550 0.0000
vt 0.6541 0.3555 0.0000
vt 0.6552 0.3537 0.0000
vt 0.6540 0.3531 0.0000
vt 0.6530 0.3538 0.0000
vt 0.6530 0.3549 0.0000
vt 0.5951 0.5009 0.0000
vt 0.5952 0.5007 0.0000
vt 0.5933 0.4981 0.0000
vt 0.5927 0.4981 0.0000
vt 0.5983 0.5009 0.0000
vt 0.5982 0.5007 0.0000
vt 0.6007 0.4981 0.0000
vt 0.6001 0.4981 0.0000
vt 0.5983 0.4953 0.0000
vt 0.5982 0.4955 0.0000
vt 0.5951 0.4953 0.0000
vt 0.5952 0.4955 0.0000
vt 0.5957 0.4998 0.0000
vt 0.5945 0.4981 0.0000
vt 0.5977 0.4998 0.0000
vt 0.5989 0.4981 0.0000
vt 0.5977 0.4964 0.0000
vt 0.5957 0.4964 0.0000
vt 0.3559 0.0830 0.0000
vt 0.3528 0.0813 0.0000
vt 0.3529 0.0889 0.0000
vt 0.3560 0.0873 0.0000
vt 0.6491 0.3600 0.0000
vt 0.3561 0.0870 0.0000
vt 0.3561 0.0832 0.0000
vt 0.3561 0.0831 0.0000
vt 0.3562 0.0871 0.0000
vt 0.3493 0.0814 0.0000
vt 0.3493 0.0817 0.0000
vt 0.3493 0.0886 0.0000
vt 0.3493 0.0889 0.0000
vt 0.3433 0.0818 0.0000
vt 0.3431 0.0814 0.0000
vt 0.3433 0.0886 0.0000
vt 0.3432 0.0889 0.0000
vt 0.3421 0.0873 0.0000
vt 0.3421 0.0831 0.0000
vt 0.3416 0.0830 0.0000
vt 0.3417 0.0873 0.0000
# 171 texture coords

o barra_izquierda_back
g barra_izquierda_back
usemtl Material__25
s 1
f 1/1/1 2/2/2 3/3/3 
f 3/3/3 4/4/4 1/1/1 
f 5/5/5 6/6/6 7/7/7 
f 7/7/7 8/8/8 5/5/5 
s 2
f 9/9/9 10/10/10 11/11/10 
f 11/11/10 12/12/9 9/9/9 
f 13/13/11 14/14/12 15/15/12 
f 15/15/12 16/16/11 13/13/11 
s 1
f 17/17/13 18/18/14 19/19/15 
f 19/19/15 20/20/16 17/17/13 
f 21/21/17 22/22/18 8/8/8 
f 8/8/8 7/7/7 21/21/17 
f 23/23/19 24/24/20 25/25/21 
f 25/25/21 26/26/22 23/23/19 
f 27/27/23 28/28/24 6/6/6 
f 6/6/6 5/5/5 27/27/23 
f 28/28/24 21/21/17 7/7/7 
f 7/7/7 6/6/6 28/28/24 
f 10/10/25 9/9/26 29/29/27 
f 29/29/27 30/30/28 10/10/25 
f 9/9/26 14/14/29 31/31/30 
f 31/31/30 29/29/27 9/9/26 
f 14/14/29 13/13/31 32/32/32 
f 32/32/32 31/31/30 14/14/29 
f 33/33/33 34/34/34 35/35/35 
f 35/35/35 36/36/36 33/33/33 
s 2
f 12/12/9 11/11/10 22/37/10 
f 22/37/10 21/21/9 12/12/9 
f 16/16/11 15/15/12 28/28/12 
f 28/28/12 27/38/11 16/16/11 
s 1
f 20/20/16 19/19/15 37/39/37 
f 37/39/37 38/40/38 20/20/16 
s 4
f 39/41/39 40/42/39 24/24/39 
f 24/24/39 23/23/39 39/41/39 
f 33/33/39 40/42/39 39/41/39 
f 39/41/39 34/34/39 33/33/39 
f 15/15/40 41/43/40 42/44/40 
f 42/44/40 28/28/40 15/15/40 
f 28/28/40 42/44/40 43/45/40 
f 43/45/40 21/21/40 28/28/40 
f 43/45/40 44/46/40 12/12/40 
f 12/12/40 21/21/40 43/45/40 
f 12/12/40 44/46/40 45/47/40 
f 45/47/40 9/9/40 12/12/40 
f 45/47/40 46/48/40 14/14/40 
f 14/14/40 9/9/40 45/47/40 
f 46/48/40 41/43/40 15/15/40 
f 15/15/40 14/14/40 46/48/40 
s 1
f 47/49/41 48/50/41 42/44/41 
f 42/44/41 41/43/41 47/49/41 
s 2
f 48/50/42 49/51/42 43/45/42 
f 43/45/42 42/44/42 48/50/42 
s 1
f 49/51/43 50/52/43 44/46/43 
f 44/46/43 43/45/43 49/51/43 
s 2
f 50/52/44 51/53/44 45/47/44 
f 45/47/44 44/46/44 50/52/44 
s 1
f 51/53/45 52/54/45 46/48/45 
f 46/48/45 45/47/45 51/53/45 
s 2
f 52/54/46 47/49/46 41/43/46 
f 41/43/46 46/48/46 52/54/46 
s 4
f 53/55/40 54/56/40 48/57/40 
f 48/57/40 47/58/40 53/55/40 
f 54/56/40 55/59/40 49/60/40 
f 49/60/40 48/57/40 54/56/40 
f 55/59/40 56/61/40 50/62/40 
f 50/62/40 49/60/40 55/59/40 
f 56/61/40 57/63/40 51/64/40 
f 51/64/40 50/62/40 56/61/40 
f 57/63/40 58/65/40 52/66/40 
f 52/66/40 51/64/40 57/63/40 
f 58/65/40 53/55/40 47/58/40 
f 47/58/40 52/66/40 58/65/40 
s 2
f 59/67/44 60/68/44 54/56/44 
f 54/56/44 53/55/44 59/67/44 
s 8
f 60/68/45 61/69/45 55/59/45 
f 55/59/45 54/56/45 60/68/45 
s 2
f 61/69/46 62/70/46 56/61/46 
f 56/61/46 55/59/46 61/69/46 
s 8
f 62/70/41 63/71/41 57/63/41 
f 57/63/41 56/61/41 62/70/41 
s 2
f 63/71/42 64/72/42 58/65/42 
f 58/65/42 57/63/42 63/71/42 
s 8
f 64/72/43 59/67/43 53/55/43 
f 53/55/43 58/65/43 64/72/43 
s 1
f 20/20/16 38/40/38 60/68/47 
f 60/68/47 59/67/48 20/20/16 
f 38/40/38 37/39/37 61/69/49 
f 61/69/49 60/68/47 38/40/38 
f 37/39/37 19/19/15 62/70/50 
f 62/70/50 61/69/49 37/39/37 
f 19/19/15 18/18/14 63/71/51 
f 63/71/51 62/70/50 19/19/15 
f 18/18/14 17/17/13 64/72/52 
f 64/72/52 63/71/51 18/18/14 
f 17/17/13 20/20/16 59/67/48 
f 59/67/48 64/72/52 17/17/13 
s 2
f 11/73/10 39/41/53 23/23/53 
f 23/23/53 22/74/10 11/73/10 
s 1
f 25/25/21 5/75/5 8/76/8 
f 8/76/8 26/26/22 25/25/21 
s 2
f 16/77/11 40/42/54 33/33/54 
f 33/33/54 13/78/11 16/77/11 
s 1
f 8/76/8 22/74/18 23/23/19 
f 23/23/19 26/26/22 8/76/8 
f 24/24/20 27/79/23 5/75/5 
f 5/75/5 25/25/21 24/24/20 
f 34/34/34 10/80/25 30/81/28 
f 30/81/28 35/35/35 34/34/34 
f 32/82/32 13/78/31 33/33/33 
f 33/33/33 36/36/36 32/82/32 
s 2
f 10/80/10 34/34/53 39/41/53 
f 39/41/53 11/73/10 10/80/10 
f 27/79/11 24/24/54 40/42/54 
f 40/42/54 16/77/11 27/79/11 
s 1
f 29/29/27 1/1/1 65/83/55 
f 65/83/55 30/30/28 29/29/27 
f 32/32/32 66/84/56 2/2/2 
f 2/2/2 31/31/30 32/32/32 
f 31/31/30 2/2/2 1/1/1 
f 1/1/1 29/29/27 31/31/30 
f 35/35/35 67/85/57 68/86/58 
f 68/86/58 36/36/36 35/35/35 
f 35/35/35 30/81/28 65/87/55 
f 65/87/55 67/85/57 35/35/35 
f 36/36/36 68/86/58 66/88/56 
f 66/88/56 32/82/32 36/36/36 
s 2
f 69/89/59 70/90/60 71/91/61 
f 71/91/61 72/92/62 69/89/59 
s 1
f 73/93/63 74/94/9 75/95/9 
f 76/96/64 77/97/12 78/98/65 
f 79/99/15 80/100/37 81/101/38 
f 81/101/38 82/102/16 79/99/15 
s 2
f 69/89/59 72/92/62 83/103/66 
f 83/103/66 84/104/67 69/89/59 
f 70/90/60 85/105/68 86/106/69 
f 86/106/69 71/91/61 70/90/60 
f 69/89/59 84/104/67 85/105/68 
f 85/105/68 70/90/60 69/89/59 
s 1
f 87/107/70 88/108/71 73/93/63 
f 73/93/63 89/109/72 87/107/70 
f 90/110/73 78/98/65 73/93/63 
f 73/93/63 88/108/71 90/110/73 
f 91/111/74 76/96/64 78/98/65 
f 78/98/65 90/110/73 91/111/74 
f 92/112/75 93/113/39 94/114/39 
f 94/114/39 95/115/76 92/112/75 
f 83/116/9 75/95/9 74/94/9 
f 74/94/9 84/104/9 83/116/9 
f 86/117/12 85/105/12 96/118/12 
f 96/118/12 77/97/12 86/117/12 
f 97/119/14 79/99/15 82/102/16 
f 82/102/16 98/120/13 97/119/14 
s 4
f 99/121/40 96/118/40 85/105/40 
f 85/105/40 100/122/40 99/121/40 
f 85/105/40 84/104/40 101/123/40 
f 101/123/40 100/122/40 85/105/40 
f 102/124/40 101/123/40 84/104/40 
f 84/104/40 74/94/40 102/124/40 
f 74/94/40 73/93/40 103/125/40 
f 103/125/40 102/124/40 74/94/40 
f 78/98/40 104/126/40 103/125/40 
f 103/125/40 73/93/40 78/98/40 
f 96/118/40 99/121/40 104/126/40 
f 104/126/40 78/98/40 96/118/40 
s 1
f 100/122/46 105/127/46 106/128/46 
f 106/128/46 99/121/46 100/122/46 
s 2
f 101/123/45 107/129/45 105/127/45 
f 105/127/45 100/122/45 101/123/45 
s 1
f 102/124/44 108/130/44 107/129/44 
f 107/129/44 101/123/44 102/124/44 
s 2
f 103/125/43 109/131/43 108/130/43 
f 108/130/43 102/124/43 103/125/43 
s 1
f 104/126/42 110/132/42 109/131/42 
f 109/131/42 103/125/42 104/126/42 
s 2
f 99/121/41 106/128/41 110/132/41 
f 110/132/41 104/126/41 99/121/41 
s 4
f 105/133/40 111/134/40 112/135/40 
f 112/135/40 106/136/40 105/133/40 
f 107/137/40 113/138/40 111/134/40 
f 111/134/40 105/133/40 107/137/40 
f 108/139/40 114/140/40 113/138/40 
f 113/138/40 107/137/40 108/139/40 
f 109/141/40 115/142/40 114/140/40 
f 114/140/40 108/139/40 109/141/40 
f 110/143/40 116/144/40 115/142/40 
f 115/142/40 109/141/40 110/143/40 
f 106/136/40 112/135/40 116/144/40 
f 116/144/40 110/143/40 106/136/40 
s 2
f 111/134/43 117/145/43 118/146/43 
f 118/146/43 112/135/43 111/134/43 
s 8
f 113/138/42 119/147/42 117/145/42 
f 117/145/42 111/134/42 113/138/42 
s 2
f 114/140/41 120/148/41 119/147/41 
f 119/147/41 113/138/41 114/140/41 
s 8
f 115/142/46 121/149/46 120/148/46 
f 120/148/46 114/140/46 115/142/46 
s 2
f 116/144/45 122/150/45 121/149/45 
f 121/149/45 115/142/45 116/144/45 
s 8
f 112/135/44 118/146/44 122/150/44 
f 122/150/44 116/144/44 112/135/44 
s 1
f 117/145/52 98/120/13 82/102/16 
f 82/102/16 118/146/48 117/145/52 
f 119/147/51 97/119/14 98/120/13 
f 98/120/13 117/145/52 119/147/51 
f 120/148/50 79/99/15 97/119/14 
f 97/119/14 119/147/51 120/148/50 
f 121/149/77 80/100/37 79/99/15 
f 79/99/15 120/148/50 121/149/77 
f 122/150/78 81/101/38 80/100/37 
f 80/100/37 121/149/77 122/150/78 
f 118/146/48 82/102/16 81/101/38 
f 81/101/38 122/150/78 118/146/48 
f 92/112/75 87/151/70 89/152/72 
f 89/152/72 93/113/39 92/112/75 
f 95/115/76 94/114/39 76/153/64 
f 76/153/64 91/154/74 95/115/76 
f 123/107/79 4/4/4 88/108/71 
f 88/108/71 87/107/70 123/107/79 
f 90/110/73 3/3/3 124/155/80 
f 124/155/80 91/111/74 90/110/73 
f 4/4/4 3/3/3 90/110/73 
f 90/110/73 88/108/71 4/4/4 
f 125/156/81 126/157/82 92/112/75 
f 92/112/75 95/115/76 125/156/81 
f 126/157/82 123/158/79 87/151/70 
f 87/151/70 92/112/75 126/157/82 
f 91/154/74 124/159/80 125/156/81 
f 125/156/81 95/115/76 91/154/74 
s 4
f 75/160/83 127/161/84 93/113/85 
f 93/113/85 89/152/86 75/160/83 
f 94/114/87 128/162/88 77/163/89 
f 77/163/89 76/153/90 94/114/87 
f 94/114/87 93/113/85 127/161/84 
f 127/161/84 128/162/88 94/114/87 
s 2
f 129/164/91 127/161/92 75/160/93 
f 75/160/93 83/165/66 129/164/91 
f 77/163/94 128/162/95 130/166/96 
f 130/166/96 86/167/69 77/163/94 
f 128/162/95 127/161/92 129/164/91 
f 129/164/91 130/166/96 128/162/95 
f 131/168/97 132/169/98 72/170/62 
f 72/170/62 71/171/61 131/168/97 
f 131/168/97 130/166/96 129/164/91 
f 129/164/91 132/169/98 131/168/97 
f 83/165/66 72/170/62 132/169/98 
f 132/169/98 129/164/91 83/165/66 
f 131/168/97 71/171/61 86/167/69 
f 86/167/69 130/166/96 131/168/97 
s 1
f 78/98/65 77/97/12 96/118/12 
f 73/93/63 75/95/9 89/109/72 
f 123/107/79 65/83/55 1/1/1 
f 1/1/1 4/4/4 123/107/79 
f 126/157/82 67/85/57 65/87/55 
f 65/87/55 123/158/79 126/157/82 
f 125/156/81 68/86/58 67/85/57 
f 67/85/57 126/157/82 125/156/81 
f 124/159/80 66/88/56 68/86/58 
f 68/86/58 125/156/81 124/159/80 
f 3/3/3 2/2/2 66/84/56 
f 66/84/56 124/155/80 3/3/3 
# 260 faces

